<svg width="32" height="32" viewBox="0 0 32 32" fill="none" xmlns="http://www.w3.org/2000/svg">
<path fill-rule="evenodd" clip-rule="evenodd" d="M6.15158 11.393L5.58317 13.6666H2.6665C2.11422 13.6666 1.6665 14.1143 1.6665 14.6666C1.6665 15.2189 2.11422 15.6666 2.6665 15.6666H29.3332C29.8855 15.6666 30.3332 15.2189 30.3332 14.6666C30.3332 14.1143 29.8855 13.6666 29.3332 13.6666H26.4165L25.8481 11.393C25.1205 8.48273 24.7568 7.02761 23.6717 6.18043C22.5867 5.33325 21.0868 5.33325 18.087 5.33325H13.9127C10.9129 5.33325 9.41301 5.33325 8.32796 6.18043C7.24292 7.02761 6.87914 8.48273 6.15158 11.393ZM8.6665 27.9999C10.8307 27.9999 12.6508 26.5267 13.1787 24.5284L14.6582 23.7886C15.5028 23.3664 16.4969 23.3664 17.3415 23.7886L18.8209 24.5284C19.3488 26.5267 21.169 27.9999 23.3332 27.9999C25.9105 27.9999 27.9998 25.9106 27.9998 23.3333C27.9998 20.7559 25.9105 18.6666 23.3332 18.6666C21.1197 18.6666 19.2662 20.2076 18.7869 22.2753L18.2359 21.9998C16.8283 21.296 15.1714 21.296 13.7638 21.9998L13.2127 22.2753C12.7335 20.2076 10.88 18.6666 8.6665 18.6666C6.08918 18.6666 3.99984 20.7559 3.99984 23.3333C3.99984 25.9106 6.08918 27.9999 8.6665 27.9999Z" fill="#828282"/>
</svg>
