<svg width="20" height="20" viewBox="0 0 20 20" fill="none" xmlns="http://www.w3.org/2000/svg">
<path fill-rule="evenodd" clip-rule="evenodd" d="M9.99984 2.2915C5.74264 2.2915 2.2915 5.74264 2.2915 9.99984C2.2915 14.257 5.74264 17.7082 9.99984 17.7082C14.257 17.7082 17.7082 14.257 17.7082 9.99984C17.7082 5.74264 14.257 2.2915 9.99984 2.2915ZM1.0415 9.99984C1.0415 5.05229 5.05229 1.0415 9.99984 1.0415C14.9474 1.0415 18.9582 5.05229 18.9582 9.99984C18.9582 14.9474 14.9474 18.9582 9.99984 18.9582C5.05229 18.9582 1.0415 14.9474 1.0415 9.99984ZM9.99984 6.0415C10.345 6.0415 10.6248 6.32133 10.6248 6.6665V9.74095L12.5251 11.6412C12.7692 11.8853 12.7692 12.281 12.5251 12.5251C12.281 12.7692 11.8853 12.7692 11.6412 12.5251L9.5579 10.4418C9.44069 10.3246 9.37484 10.1656 9.37484 9.99984V6.6665C9.37484 6.32133 9.65466 6.0415 9.99984 6.0415Z" fill="#4483FD"/>
</svg>
