<svg width="20" height="21" viewBox="0 0 20 21" fill="none" xmlns="http://www.w3.org/2000/svg">
<path fill-rule="evenodd" clip-rule="evenodd" d="M12.5 1.54169H9.11965C7.58819 1.54167 6.37516 1.54166 5.42582 1.6693C4.4488 1.80066 3.65801 2.07742 3.03437 2.70106C2.41073 3.32469 2.13397 4.11548 2.00261 5.0925C1.87498 6.04185 1.87499 7.25487 1.875 8.78633V13.8334C1.875 15.3936 3.01838 16.6867 4.51293 16.9206C4.6279 17.5573 4.84794 18.1007 5.29029 18.5431C5.79189 19.0447 6.42345 19.2604 7.17354 19.3613C7.89602 19.4584 8.81462 19.4584 9.95428 19.4584H12.5457C13.6854 19.4584 14.604 19.4584 15.3265 19.3613C16.0766 19.2604 16.7081 19.0447 17.2097 18.5431C17.7113 18.0415 17.9271 17.4099 18.0279 16.6598C18.125 15.9373 18.125 15.0187 18.125 13.8791V9.62096C18.125 8.4813 18.125 7.5627 18.0279 6.84023C17.9271 6.09014 17.7113 5.45858 17.2097 4.95698C16.7674 4.51463 16.2239 4.29459 15.5873 4.17962C15.3534 2.68506 14.0602 1.54169 12.5 1.54169ZM14.2744 4.05933C14.0221 3.32188 13.323 2.79169 12.5 2.79169H9.16667C7.57765 2.79169 6.44876 2.79302 5.59237 2.90815C4.75397 3.02087 4.27093 3.23227 3.91825 3.58494C3.56558 3.93761 3.35419 4.42065 3.24147 5.25906C3.12633 6.11545 3.125 7.24434 3.125 8.83335V13.8334C3.125 14.6563 3.6552 15.3554 4.39264 15.6078C4.37498 15.0995 4.37499 14.5248 4.375 13.8791V9.62096C4.37498 8.4813 4.37497 7.5627 4.4721 6.84023C4.57295 6.09014 4.7887 5.45858 5.29029 4.95698C5.79189 4.45538 6.42345 4.23964 7.17354 4.13879C7.89601 4.04166 8.81461 4.04167 9.95427 4.04169H12.5457C13.1914 4.04168 13.7661 4.04167 14.2744 4.05933ZM6.17418 5.84086C6.40481 5.61023 6.72862 5.45986 7.3401 5.37764C7.96956 5.29302 8.80382 5.29169 10 5.29169H12.5C13.6962 5.29169 14.5304 5.29302 15.1599 5.37764C15.7714 5.45986 16.0952 5.61023 16.3258 5.84086C16.5565 6.0715 16.7068 6.39531 16.789 7.00679C16.8737 7.63625 16.875 8.47051 16.875 9.66669V13.8334C16.875 15.0295 16.8737 15.8638 16.789 16.4933C16.7068 17.1047 16.5565 17.4285 16.3258 17.6592C16.0952 17.8898 15.7714 18.0402 15.1599 18.1224C14.5304 18.207 13.6962 18.2084 12.5 18.2084H10C8.80382 18.2084 7.96956 18.207 7.3401 18.1224C6.72862 18.0402 6.40481 17.8898 6.17418 17.6592C5.94354 17.4285 5.79317 17.1047 5.71096 16.4933C5.62633 15.8638 5.625 15.0295 5.625 13.8334V9.66669C5.625 8.47051 5.62633 7.63625 5.71096 7.00679C5.79317 6.39531 5.94354 6.0715 6.17418 5.84086Z" fill="#4483FD"/>
</svg>
