<svg width="20" height="20" viewBox="0 0 20 20" fill="none" xmlns="http://www.w3.org/2000/svg">
<path d="M15.8333 10C15.8333 10.4603 15.4602 10.8334 15 10.8334C14.5397 10.8334 14.1666 10.4603 14.1666 10C14.1666 9.5398 14.5397 9.16671 15 9.16671C15.4602 9.16671 15.8333 9.5398 15.8333 10Z" fill="#4483FD"/>
<path fill-rule="evenodd" clip-rule="evenodd" d="M8.28628 2.70837H10.8803C12.4118 2.70836 13.6248 2.70835 14.5741 2.83599C15.5512 2.96734 16.342 3.24411 16.9656 3.86774C17.7359 4.63807 17.9814 5.66973 18.0705 7.00844C18.5516 7.22012 18.9148 7.66779 18.9548 8.23487C18.9584 8.28503 18.9583 8.3391 18.9583 8.38922C18.9583 8.39379 18.9583 8.39832 18.9583 8.40282V11.5973C18.9583 11.6018 18.9583 11.6063 18.9583 11.6109C18.9583 11.661 18.9584 11.7151 18.9548 11.7652C18.9148 12.3323 18.5516 12.78 18.0705 12.9917C17.9814 14.3304 17.7359 15.362 16.9656 16.1323C16.342 16.756 15.5512 17.0327 14.5741 17.1641C13.6248 17.2917 12.4118 17.2917 10.8803 17.2917H8.28628C6.75482 17.2917 5.54179 17.2917 4.59244 17.1641C3.61542 17.0327 2.82463 16.756 2.201 16.1323C1.57736 15.5087 1.3006 14.7179 1.16924 13.7409C1.0416 12.7916 1.04161 11.5785 1.04163 10.0471V9.95303C1.04161 8.42156 1.0416 7.20853 1.16924 6.25919C1.3006 5.28217 1.57736 4.49138 2.201 3.86774C2.82463 3.24411 3.61542 2.96734 4.59244 2.83599C5.54179 2.70835 6.75481 2.70836 8.28628 2.70837ZM16.8066 13.125H15.1923C13.4046 13.125 11.875 11.7687 11.875 10C11.875 8.23134 13.4046 6.87504 15.1923 6.87504H16.8066C16.7117 5.75716 16.4971 5.16707 16.0817 4.75163C15.729 4.39895 15.246 4.18756 14.4076 4.07484C13.5512 3.9597 12.4223 3.95837 10.8333 3.95837H8.33329C6.74428 3.95837 5.61539 3.9597 4.759 4.07484C3.92059 4.18756 3.43755 4.39895 3.08488 4.75163C2.7322 5.1043 2.52081 5.58734 2.40809 6.42575C2.29295 7.28214 2.29163 8.41103 2.29163 10C2.29163 11.5891 2.29295 12.7179 2.40809 13.5743C2.52081 14.4127 2.7322 14.8958 3.08488 15.2485C3.43755 15.6011 3.92059 15.8125 4.759 15.9252C5.61539 16.0404 6.74428 16.0417 8.33329 16.0417H10.8333C12.4223 16.0417 13.5512 16.0404 14.4076 15.9252C15.246 15.8125 15.729 15.6011 16.0817 15.2485C16.4971 14.833 16.7117 14.2429 16.8066 13.125ZM4.37496 6.66671C4.37496 6.32153 4.65478 6.04171 4.99996 6.04171H8.33329C8.67847 6.04171 8.95829 6.32153 8.95829 6.66671C8.95829 7.01189 8.67847 7.29171 8.33329 7.29171H4.99996C4.65478 7.29171 4.37496 7.01189 4.37496 6.66671ZM17.4362 8.12523C17.4193 8.12505 17.3971 8.12504 17.3611 8.12504H15.1923C14.0061 8.12504 13.125 9.00732 13.125 10C13.125 10.9928 14.0061 11.875 15.1923 11.875H17.3611C17.3971 11.875 17.4193 11.875 17.4362 11.8749C17.4466 11.8747 17.4521 11.8746 17.4547 11.8745L17.4566 11.8744C17.6284 11.864 17.7022 11.748 17.7078 11.6783C17.7078 11.6783 17.708 11.673 17.7081 11.6655C17.7083 11.6507 17.7083 11.631 17.7083 11.5973V8.40282C17.7083 8.36906 17.7083 8.34935 17.7081 8.33456C17.708 8.32703 17.7078 8.32179 17.7078 8.32179C17.7022 8.25206 17.6283 8.13613 17.4566 8.12567C17.4566 8.12567 17.4525 8.1254 17.4362 8.12523Z" fill="#4483FD"/>
</svg>
