<svg width="20" height="20" viewBox="0 0 20 20" fill="none" xmlns="http://www.w3.org/2000/svg">
<path fill-rule="evenodd" clip-rule="evenodd" d="M4.95663 1.45837C4.20791 1.45835 3.58354 1.45833 3.0879 1.52497C2.56473 1.59531 2.0924 1.75003 1.71284 2.12959C1.33328 2.50915 1.17856 2.98148 1.10822 3.50464C1.04158 4.00029 1.0416 4.62463 1.04163 5.37335V7.12671C1.0416 7.87543 1.04158 8.4998 1.10822 8.99544C1.17856 9.51861 1.33328 9.99094 1.71284 10.3705C2.0924 10.7501 2.56473 10.9048 3.0879 10.9751C3.58354 11.0418 4.20788 11.0417 4.95661 11.0417H5.04329C5.79201 11.0417 6.41638 11.0418 6.91203 10.9751C7.43519 10.9048 7.90752 10.7501 8.28708 10.3705C8.66664 9.99094 8.82137 9.51861 8.8917 8.99544C8.95834 8.4998 8.95832 7.87545 8.9583 7.12673V5.37338C8.95832 4.62466 8.95834 4.00029 8.8917 3.50464C8.82137 2.98148 8.66664 2.50915 8.28708 2.12959C7.90752 1.75003 7.43519 1.59531 6.91203 1.52497C6.41638 1.45833 5.79204 1.45835 5.04332 1.45837H4.95663ZM2.59673 3.01347C2.70532 2.90488 2.8699 2.81552 3.25446 2.76382C3.65699 2.7097 4.19662 2.70838 4.99996 2.70838C5.8033 2.70838 6.34294 2.7097 6.74547 2.76382C7.13002 2.81552 7.2946 2.90488 7.4032 3.01347C7.5118 3.12207 7.60115 3.28665 7.65285 3.6712C7.70697 4.07373 7.7083 4.61337 7.7083 5.41671V7.08338C7.7083 7.88672 7.70697 8.42635 7.65285 8.82888C7.60115 9.21344 7.5118 9.37802 7.4032 9.48661C7.2946 9.59521 7.13002 9.68456 6.74547 9.73626C6.34294 9.79038 5.8033 9.79171 4.99996 9.79171C4.19662 9.79171 3.65699 9.79038 3.25446 9.73626C2.8699 9.68456 2.70532 9.59521 2.59673 9.48661C2.48813 9.37802 2.39878 9.21344 2.34707 8.82888C2.29296 8.42635 2.29163 7.88672 2.29163 7.08338V5.41671C2.29163 4.61337 2.29296 4.07373 2.34707 3.6712C2.39878 3.28665 2.48813 3.12207 2.59673 3.01347Z" fill="#4483FD"/>
<path fill-rule="evenodd" clip-rule="evenodd" d="M14.54 8.95838C13.7912 8.95835 13.1669 8.95833 12.6712 9.02497C12.1481 9.09531 11.6757 9.25003 11.2962 9.62959C10.9166 10.0091 10.7619 10.4815 10.6916 11.0046C10.6249 11.5003 10.6249 12.1246 10.625 12.8734V14.6267C10.6249 15.3754 10.6249 15.9998 10.6916 16.4954C10.7619 17.0186 10.9166 17.4909 11.2962 17.8705C11.6757 18.2501 12.1481 18.4048 12.6712 18.4751C13.1669 18.5418 13.7912 18.5417 14.5399 18.5417H14.6266C15.3753 18.5417 15.9997 18.5418 16.4954 18.4751C17.0185 18.4048 17.4909 18.2501 17.8704 17.8705C18.25 17.4909 18.4047 17.0186 18.475 16.4954C18.5417 15.9998 18.5417 15.3755 18.5416 14.6268V12.8734C18.5417 12.1247 18.5417 11.5003 18.475 11.0046C18.4047 10.4815 18.25 10.0091 17.8704 9.62959C17.4909 9.25003 17.0185 9.09531 16.4954 9.02497C15.9997 8.95833 15.3754 8.95835 14.6266 8.95838H14.54ZM12.1801 10.5135C12.2887 10.4049 12.4532 10.3155 12.8378 10.2638C13.2403 10.2097 13.78 10.2084 14.5833 10.2084C15.3866 10.2084 15.9263 10.2097 16.3288 10.2638C16.7134 10.3155 16.8779 10.4049 16.9865 10.5135C17.0951 10.6221 17.1845 10.7867 17.2362 11.1712C17.2903 11.5737 17.2916 12.1134 17.2916 12.9167V14.5834C17.2916 15.3867 17.2903 15.9264 17.2362 16.3289C17.1845 16.7134 17.0951 16.878 16.9865 16.9866C16.8779 17.0952 16.7134 17.1846 16.3288 17.2363C15.9263 17.2904 15.3866 17.2917 14.5833 17.2917C13.78 17.2917 13.2403 17.2904 12.8378 17.2363C12.4532 17.1846 12.2887 17.0952 12.1801 16.9866C12.0715 16.878 11.9821 16.7134 11.9304 16.3289C11.8763 15.9264 11.875 15.3867 11.875 14.5834V12.9167C11.875 12.1134 11.8763 11.5737 11.9304 11.1712C11.9821 10.7867 12.0715 10.6221 12.1801 10.5135Z" fill="#4483FD"/>
<path fill-rule="evenodd" clip-rule="evenodd" d="M13.7289 1.45837H15.4377C15.808 1.45837 16.1173 1.45837 16.3711 1.47568C16.6354 1.49371 16.885 1.53258 17.1269 1.63282C17.6885 1.86541 18.1346 2.31154 18.3672 2.87306C18.4674 3.11505 18.5063 3.36466 18.5243 3.62891C18.5416 3.88275 18.5416 4.19195 18.5416 4.56233V4.60442C18.5416 4.97481 18.5416 5.284 18.5243 5.53785C18.5063 5.8021 18.4674 6.0517 18.3672 6.29369C18.1346 6.85522 17.6885 7.30134 17.1269 7.53393C16.885 7.63417 16.6354 7.67304 16.3711 7.69107C16.1173 7.70839 15.8081 7.70838 15.4377 7.70838H13.7289C13.3585 7.70838 13.0493 7.70839 12.7955 7.69107C12.5312 7.67304 12.2816 7.63417 12.0396 7.53393C11.4781 7.30134 11.032 6.85522 10.7994 6.29369C10.6992 6.0517 10.6603 5.8021 10.6423 5.53785C10.625 5.284 10.625 4.9748 10.625 4.60442V4.56233C10.625 4.19195 10.625 3.88275 10.6423 3.62891C10.6603 3.36466 10.6992 3.11505 10.7994 2.87306C11.032 2.31154 11.4781 1.86541 12.0396 1.63282C12.2816 1.53258 12.5312 1.49371 12.7955 1.47568C13.0493 1.45837 13.3586 1.45837 13.7289 1.45837ZM12.8806 2.72279C12.68 2.73647 12.5823 2.76104 12.518 2.78767C12.2628 2.89339 12.06 3.09618 11.9543 3.35141C11.9276 3.41571 11.9031 3.51339 11.8894 3.714C11.8753 3.92021 11.875 4.18654 11.875 4.58338C11.875 4.98021 11.8753 5.24654 11.8894 5.45276C11.9031 5.65336 11.9276 5.75104 11.9543 5.81534C12.06 6.07058 12.2628 6.27336 12.518 6.37908C12.5823 6.40572 12.68 6.43028 12.8806 6.44397C13.0868 6.45804 13.3531 6.45838 13.75 6.45838H15.4166C15.8135 6.45838 16.0798 6.45804 16.286 6.44397C16.4866 6.43028 16.5843 6.40572 16.6486 6.37908C16.9038 6.27336 17.1066 6.07058 17.2123 5.81534C17.239 5.75104 17.2635 5.65336 17.2772 5.45276C17.2913 5.24654 17.2916 4.98021 17.2916 4.58338C17.2916 4.18654 17.2913 3.92021 17.2772 3.714C17.2635 3.51339 17.239 3.41571 17.2123 3.35141C17.1066 3.09618 16.9038 2.89339 16.6486 2.78767C16.5843 2.76104 16.4866 2.73647 16.286 2.72279C16.0798 2.70872 15.8135 2.70838 15.4166 2.70838H13.75C13.3531 2.70838 13.0868 2.70872 12.8806 2.72279Z" fill="#4483FD"/>
<path fill-rule="evenodd" clip-rule="evenodd" d="M4.14559 12.2917C3.7752 12.2917 3.466 12.2917 3.21216 12.309C2.94791 12.327 2.6983 12.3659 2.45631 12.4662C1.89479 12.6987 1.44866 13.1449 1.21607 13.7064C1.11584 13.9484 1.07697 14.198 1.05894 14.4622C1.04162 14.7161 1.04162 15.0252 1.04163 15.3956V15.4378C1.04162 15.8081 1.04162 16.1174 1.05894 16.3712C1.07697 16.6354 1.11584 16.885 1.21607 17.127C1.44866 17.6886 1.89479 18.1347 2.45631 18.3673C2.6983 18.4675 2.94791 18.5064 3.21216 18.5244C3.466 18.5417 3.7752 18.5417 4.14558 18.5417H5.85434C6.22473 18.5417 6.53392 18.5417 6.78777 18.5244C7.05202 18.5064 7.30162 18.4675 7.54361 18.3673C8.10513 18.1347 8.55126 17.6886 8.78385 17.127C8.88409 16.885 8.92296 16.6354 8.94099 16.3712C8.95831 16.1173 8.9583 15.8081 8.9583 15.4378V15.3957C8.9583 15.0253 8.95831 14.7161 8.94099 14.4622C8.92296 14.198 8.88409 13.9484 8.78385 13.7064C8.55126 13.1449 8.10513 12.6987 7.54361 12.4662C7.30162 12.3659 7.05202 12.327 6.78777 12.309C6.53392 12.2917 6.22472 12.2917 5.85434 12.2917H4.14559ZM2.93467 13.621C2.99896 13.5944 3.09664 13.5698 3.29725 13.5561C3.50347 13.542 3.76979 13.5417 4.16663 13.5417H5.8333C6.23013 13.5417 6.49646 13.542 6.70268 13.5561C6.90328 13.5698 7.00096 13.5944 7.06526 13.621C7.32049 13.7267 7.52328 13.9295 7.629 14.1847C7.65564 14.249 7.6802 14.3467 7.69389 14.5473C7.70796 14.7535 7.7083 15.0199 7.7083 15.4167C7.7083 15.8135 7.70796 16.0799 7.69389 16.2861C7.6802 16.4867 7.65564 16.5844 7.629 16.6487C7.52328 16.9039 7.32049 17.1067 7.06526 17.2124C7.00096 17.2391 6.90328 17.2636 6.70268 17.2773C6.49646 17.2914 6.23013 17.2917 5.8333 17.2917H4.16663C3.76979 17.2917 3.50347 17.2914 3.29725 17.2773C3.09664 17.2636 2.99896 17.2391 2.93467 17.2124C2.67943 17.1067 2.47664 16.9039 2.37092 16.6487C2.34429 16.5844 2.31972 16.4867 2.30604 16.2861C2.29197 16.0799 2.29163 15.8135 2.29163 15.4167C2.29163 15.0199 2.29197 14.7535 2.30604 14.5473C2.31972 14.3467 2.34429 14.249 2.37092 14.1847C2.47664 13.9295 2.67943 13.7267 2.93467 13.621Z" fill="#4483FD"/>
</svg>
