<svg width="20" height="20" viewBox="0 0 20 20" fill="none" xmlns="http://www.w3.org/2000/svg">
<path fill-rule="evenodd" clip-rule="evenodd" d="M13.125 5C13.125 3.27411 11.7259 1.875 10 1.875C8.27415 1.875 6.87504 3.27411 6.87504 5C6.87504 6.72589 8.27415 8.125 10 8.125C11.7259 8.125 13.125 6.72589 13.125 5ZM10 3.125C11.0356 3.125 11.875 3.96447 11.875 5C11.875 6.03553 11.0356 6.875 10 6.875C8.96451 6.875 8.12504 6.03553 8.12504 5C8.12504 3.96447 8.96451 3.125 10 3.125Z" fill="#4483FD"/>
<path fill-rule="evenodd" clip-rule="evenodd" d="M7.70837 15C7.70837 13.2741 6.30926 11.875 4.58337 11.875C2.85748 11.875 1.45837 13.2741 1.45837 15C1.45837 16.7259 2.85748 18.125 4.58337 18.125C6.30926 18.125 7.70837 16.7259 7.70837 15ZM4.58337 13.125C5.61891 13.125 6.45837 13.9645 6.45837 15C6.45837 16.0355 5.61891 16.875 4.58337 16.875C3.54784 16.875 2.70837 16.0355 2.70837 15C2.70837 13.9645 3.54784 13.125 4.58337 13.125Z" fill="#4483FD"/>
<path fill-rule="evenodd" clip-rule="evenodd" d="M15.4167 11.875C17.1426 11.875 18.5417 13.2741 18.5417 15C18.5417 16.7259 17.1426 18.125 15.4167 18.125C13.6908 18.125 12.2917 16.7259 12.2917 15C12.2917 13.2741 13.6908 11.875 15.4167 11.875ZM17.2917 15C17.2917 13.9645 16.4522 13.125 15.4167 13.125C14.3812 13.125 13.5417 13.9645 13.5417 15C13.5417 16.0355 14.3812 16.875 15.4167 16.875C16.4522 16.875 17.2917 16.0355 17.2917 15Z" fill="#4483FD"/>
<path d="M6.00394 6.30192C6.26273 6.07351 6.28736 5.67855 6.05895 5.41975C5.83053 5.16096 5.43557 5.13633 5.17678 5.36475C3.66401 6.69993 2.70837 8.65543 2.70837 10.8334C2.70837 11.1785 2.9882 11.4584 3.33337 11.4584C3.67855 11.4584 3.95837 11.1785 3.95837 10.8334C3.95837 9.02895 4.74861 7.40989 6.00394 6.30192Z" fill="#4483FD"/>
<path d="M14.8233 5.36475C14.5645 5.13633 14.1695 5.16096 13.9411 5.41975C13.7127 5.67855 13.7373 6.07351 13.9961 6.30192C15.2515 7.40989 16.0417 9.02895 16.0417 10.8334C16.0417 11.1785 16.3215 11.4584 16.6667 11.4584C17.0119 11.4584 17.2917 11.1785 17.2917 10.8334C17.2917 8.65543 16.3361 6.69993 14.8233 5.36475Z" fill="#4483FD"/>
<path d="M8.48916 16.6847C8.15488 16.5987 7.81414 16.7999 7.7281 17.1342C7.64206 17.4685 7.8433 17.8092 8.17759 17.8953C8.76075 18.0454 9.37155 18.125 10 18.125C10.6285 18.125 11.2393 18.0454 11.8225 17.8953C12.1568 17.8092 12.358 17.4685 12.272 17.1342C12.1859 16.7999 11.8452 16.5987 11.5109 16.6847C11.0287 16.8088 10.5225 16.875 10 16.875C9.47753 16.875 8.9714 16.8088 8.48916 16.6847Z" fill="#4483FD"/>
</svg>
