<svg width="20" height="20" viewBox="0 0 20 20" fill="none" xmlns="http://www.w3.org/2000/svg">
<path fill-rule="evenodd" clip-rule="evenodd" d="M10 6.87508C8.27415 6.87508 6.87504 8.27419 6.87504 10.0001C6.87504 11.726 8.27415 13.1251 10 13.1251C11.7259 13.1251 13.125 11.726 13.125 10.0001C13.125 8.27419 11.7259 6.87508 10 6.87508ZM8.12504 10.0001C8.12504 8.96455 8.96451 8.12508 10 8.12508C11.0356 8.12508 11.875 8.96455 11.875 10.0001C11.875 11.0356 11.0356 11.8751 10 11.8751C8.96451 11.8751 8.12504 11.0356 8.12504 10.0001Z" fill="#4483FD"/>
<path fill-rule="evenodd" clip-rule="evenodd" d="M9.97899 1.04175C9.60861 1.04174 9.29941 1.04174 9.04556 1.05906C8.78131 1.07709 8.53171 1.11596 8.28972 1.21619C7.7282 1.44878 7.28207 1.89491 7.04948 2.45643C6.92839 2.74876 6.8956 3.05685 6.88307 3.39172C6.87301 3.66091 6.73715 3.88551 6.53667 4.00126C6.33618 4.11701 6.07375 4.12236 5.83559 3.99648C5.53932 3.83989 5.25611 3.71424 4.9424 3.67294C4.33981 3.59361 3.73039 3.7569 3.2482 4.1269C3.0404 4.28635 2.88193 4.48308 2.7342 4.70292C2.59227 4.91409 2.43768 5.18187 2.25249 5.50264L2.23145 5.53909C2.04625 5.85984 1.89165 6.12761 1.77972 6.35611C1.66321 6.59397 1.57207 6.82957 1.53788 7.08926C1.45855 7.69185 1.62185 8.30127 1.99184 8.78346C2.18444 9.03446 2.43481 9.21688 2.71851 9.39514C2.94667 9.53849 3.07327 9.76851 3.07326 10.0001C3.07325 10.2316 2.94664 10.4616 2.71852 10.6049C2.43478 10.7832 2.18438 10.9656 1.99176 11.2166C1.62177 11.6988 1.45847 12.3083 1.5378 12.9108C1.57199 13.1705 1.66313 13.4061 1.77964 13.644C1.89156 13.8725 2.04616 14.1403 2.23136 14.461L2.25241 14.4975C2.4376 14.8182 2.59219 15.086 2.73411 15.2972C2.88185 15.517 3.04032 15.7138 3.24812 15.8732C3.73031 16.2432 4.33973 16.4065 4.94232 16.3272C5.25601 16.2859 5.5392 16.1602 5.83546 16.0037C6.07365 15.8778 6.33612 15.8831 6.53663 15.9989C6.73714 16.1146 6.87301 16.3393 6.88308 16.6085C6.8956 16.9433 6.9284 17.2514 7.04948 17.5437C7.28207 18.1053 7.7282 18.5514 8.28972 18.784C8.53171 18.8842 8.78131 18.9231 9.04556 18.9411C9.29941 18.9584 9.6086 18.9584 9.97899 18.9584H10.0211C10.3915 18.9584 10.7007 18.9584 10.9545 18.9411C11.2188 18.9231 11.4684 18.8842 11.7104 18.784C12.2719 18.5514 12.718 18.1053 12.9506 17.5437C13.0717 17.2514 13.1045 16.9433 13.117 16.6084C13.1271 16.3392 13.2629 16.1146 13.4634 15.9989C13.6639 15.8831 13.9264 15.8777 14.1646 16.0036C14.4608 16.1602 14.744 16.2858 15.0577 16.3271C15.6603 16.4064 16.2697 16.2431 16.7519 15.8731C16.9597 15.7137 17.1181 15.517 17.2659 15.2971C17.4078 15.086 17.5624 14.8182 17.7475 14.4975L17.7686 14.461C17.9538 14.1403 18.1084 13.8724 18.2203 13.6439C18.3369 13.4061 18.428 13.1705 18.4622 12.9108C18.5415 12.3082 18.3782 11.6988 18.0082 11.2166C17.8156 10.9656 17.5652 10.7831 17.2815 10.6049C17.0534 10.4615 16.9268 10.2316 16.9268 10C16.9268 9.76854 17.0534 9.53859 17.2815 9.39528C17.5653 9.217 17.8157 9.03455 18.0083 8.78351C18.3783 8.30132 18.5416 7.6919 18.4623 7.08932C18.4281 6.82963 18.3369 6.59403 18.2204 6.35617C18.1085 6.12769 17.9539 5.85994 17.7687 5.53921L17.7477 5.50273C17.5625 5.18196 17.4079 4.91415 17.266 4.70297C17.1182 4.48314 16.9598 4.28641 16.752 4.12696C16.2698 3.75696 15.6603 3.59367 15.0577 3.673C14.7441 3.7143 14.4609 3.83993 14.1646 3.99651C13.9264 4.1224 13.664 4.11705 13.4634 4.00128C13.2629 3.88552 13.1271 3.66089 13.117 3.39167C13.1045 3.05682 13.0717 2.74875 12.9506 2.45643C12.718 1.89491 12.2719 1.44878 11.7104 1.21619C11.4684 1.11596 11.2188 1.07709 10.9545 1.05906C10.7007 1.04174 10.3915 1.04174 10.0211 1.04175H9.97899ZM8.76807 2.37104C8.83237 2.34441 8.93005 2.31984 9.13065 2.30616C9.33687 2.29209 9.6032 2.29175 10 2.29175C10.3969 2.29175 10.6632 2.29209 10.8694 2.30616C11.07 2.31984 11.1677 2.34441 11.232 2.37104C11.4872 2.47676 11.69 2.67955 11.7957 2.93479C11.8291 3.0153 11.8567 3.14081 11.8679 3.43839C11.8926 4.0987 12.2334 4.73449 12.8384 5.08382C13.4435 5.43315 14.1645 5.41042 14.7487 5.10165C15.012 4.9625 15.1345 4.92368 15.2209 4.91231C15.4948 4.87625 15.7718 4.95047 15.991 5.11865C16.0462 5.16102 16.1163 5.23333 16.2285 5.40021C16.3438 5.57177 16.4772 5.80225 16.6756 6.14592C16.8741 6.48959 17.0069 6.7204 17.0979 6.90603C17.1863 7.0866 17.2139 7.18348 17.223 7.25247C17.259 7.52638 17.1848 7.80339 17.0166 8.02256C16.9636 8.09171 16.8687 8.17841 16.6165 8.33686C16.057 8.68838 15.6768 9.30137 15.6768 9.99997C15.6768 10.6986 16.057 11.3117 16.6165 11.6633C16.8686 11.8217 16.9635 11.9084 17.0165 11.9775C17.1847 12.1967 17.2589 12.4737 17.2229 12.7476C17.2138 12.8166 17.1862 12.9135 17.0978 13.0941C17.0069 13.2797 16.874 13.5105 16.6756 13.8542C16.4771 14.1979 16.3437 14.4283 16.2284 14.5999C16.1162 14.7668 16.0461 14.8391 15.9909 14.8815C15.7717 15.0496 15.4947 15.1239 15.2208 15.0878C15.1344 15.0764 15.0119 15.0376 14.7487 14.8985C14.1644 14.5897 13.4434 14.567 12.8383 14.9164C12.2333 15.2657 11.8926 15.9014 11.8679 16.5617C11.8567 16.8593 11.8291 16.9849 11.7957 17.0654C11.69 17.3206 11.4872 17.5234 11.232 17.6291C11.1677 17.6558 11.07 17.6803 10.8694 17.694C10.6632 17.7081 10.3969 17.7084 10 17.7084C9.6032 17.7084 9.33687 17.7081 9.13065 17.694C8.93005 17.6803 8.83237 17.6558 8.76807 17.6291C8.51283 17.5234 8.31005 17.3206 8.20433 17.0654C8.17098 16.9849 8.14333 16.8594 8.1322 16.5618C8.10751 15.9015 7.76668 15.2657 7.16162 14.9163C6.55657 14.567 5.83556 14.5897 5.25136 14.8985C4.98808 15.0377 4.86556 15.0765 4.77916 15.0879C4.50526 15.1239 4.22825 15.0497 4.00907 14.8815C3.95386 14.8391 3.88375 14.7668 3.77159 14.6C3.6563 14.4284 3.52284 14.1979 3.32442 13.8542C3.126 13.5106 2.99313 13.2798 2.90221 13.0941C2.81376 12.9136 2.78619 12.8167 2.77711 12.7477C2.74105 12.4738 2.81527 12.1968 2.98345 11.9776C3.03651 11.9085 3.13138 11.8218 3.38354 11.6633C3.94303 11.3118 4.32322 10.6988 4.32326 10.0001C4.3233 9.30142 3.94309 8.68831 3.38355 8.33673C3.13145 8.17833 3.03658 8.09164 2.98354 8.02251C2.81536 7.80333 2.74113 7.52632 2.77719 7.25242C2.78627 7.18342 2.81384 7.08654 2.90229 6.90597C2.99321 6.72034 3.12608 6.48953 3.3245 6.14586C3.52292 5.80219 3.65638 5.57171 3.77167 5.40016C3.88383 5.23327 3.95394 5.16096 4.00915 5.11859C4.22833 4.95041 4.50534 4.87619 4.77924 4.91225C4.86565 4.92362 4.98818 4.96244 5.25148 5.10161C5.83565 5.41037 6.55663 5.4331 7.16166 5.08379C7.76669 4.73448 8.10751 4.09872 8.1322 3.43843C8.14333 3.14082 8.17098 3.0153 8.20433 2.93479C8.31005 2.67955 8.51283 2.47676 8.76807 2.37104Z" fill="#4483FD"/>
</svg>
