<svg width="16" height="16" viewBox="0 0 16 16" fill="none" xmlns="http://www.w3.org/2000/svg">
<g clip-path="url(#clip0_705_10348)">
<path d="M10.6869 6.68688C10.8822 6.49162 10.8822 6.17504 10.6869 5.97977C10.4917 5.78451 10.1751 5.78451 9.97982 5.97977L7.00004 8.95955L6.02026 7.97977C5.825 7.78451 5.50842 7.78451 5.31315 7.97977C5.11789 8.17504 5.11789 8.49162 5.31315 8.68688L6.64649 10.0202C6.84175 10.2155 7.15833 10.2155 7.35359 10.0202L10.6869 6.68688Z" fill="#6FCF97"/>
<path fill-rule="evenodd" clip-rule="evenodd" d="M8.03829 0.833328H7.96179C6.42287 0.83332 5.21683 0.833314 4.27584 0.959826C3.31269 1.08932 2.55267 1.35955 1.95613 1.95609C1.35959 2.55263 1.08937 3.31264 0.959872 4.2758C0.833359 5.21679 0.833366 6.42281 0.833374 7.96173V8.03825C0.833366 9.57717 0.833359 10.7832 0.959872 11.7242C1.08937 12.6874 1.35959 13.4474 1.95613 14.0439C2.55267 14.6404 3.31269 14.9107 4.27584 15.0402C5.21684 15.1667 6.42286 15.1667 7.96179 15.1667H8.03829C9.57722 15.1667 10.7832 15.1667 11.7242 15.0402C12.6874 14.9107 13.4474 14.6404 14.044 14.0439C14.6405 13.4474 14.9107 12.6874 15.0402 11.7242C15.1667 10.7832 15.1667 9.57717 15.1667 8.03824V7.96175C15.1667 6.42282 15.1667 5.21679 15.0402 4.2758C14.9107 3.31264 14.6405 2.55263 14.044 1.95609C13.4474 1.35955 12.6874 1.08932 11.7242 0.959826C10.7832 0.833314 9.57722 0.83332 8.03829 0.833328ZM2.66324 2.66319C3.04301 2.28342 3.55682 2.06549 4.40909 1.95091C5.27574 1.83439 6.41456 1.83333 8.00004 1.83333C9.58552 1.83333 10.7243 1.83439 11.591 1.95091C12.4433 2.06549 12.9571 2.28342 13.3368 2.66319C13.7166 3.04296 13.9345 3.55678 14.0491 4.40905C14.1656 5.2757 14.1667 6.41451 14.1667 8C14.1667 9.58548 14.1656 10.7243 14.0491 11.5909C13.9345 12.4432 13.7166 12.957 13.3368 13.3368C12.9571 13.7166 12.4433 13.9345 11.591 14.0491C10.7243 14.1656 9.58552 14.1667 8.00004 14.1667C6.41456 14.1667 5.27574 14.1656 4.40909 14.0491C3.55682 13.9345 3.04301 13.7166 2.66324 13.3368C2.28347 12.957 2.06554 12.4432 1.95095 11.5909C1.83444 10.7243 1.83337 9.58548 1.83337 8C1.83337 6.41451 1.83444 5.2757 1.95095 4.40905C2.06554 3.55678 2.28347 3.04296 2.66324 2.66319Z" fill="#6FCF97"/>
</g>
<defs>
<clipPath id="clip0_705_10348">
<rect width="16" height="16" fill="white"/>
</clipPath>
</defs>
</svg>
