<svg width="60" height="60" viewBox="0 0 60 60" fill="none" xmlns="http://www.w3.org/2000/svg">
<g clip-path="url(#clip0_622_13206)">
<path d="M30.0012 60.0024C46.5704 60.0024 60.0024 46.5704 60.0024 30.0012C60.0024 13.432 46.5704 0 30.0012 0C13.432 0 0 13.432 0 30.0012C0 46.5704 13.432 60.0024 30.0012 60.0024Z" fill="#8CC1FF"/>
<path d="M30.0012 49.0922C19.4561 49.0922 10.9102 40.5464 10.9102 30.0012C10.9102 19.4561 19.4561 10.9102 30.0012 10.9102C35.2714 10.9102 40.0435 13.0473 43.5005 16.5019L51.2148 8.78762C45.7851 3.35791 38.2836 0 30.0012 0C13.4316 0 0 13.4316 0 30.0012C0 46.5708 13.4316 60.0024 30.0012 60.0024C38.286 60.0024 45.7851 56.6445 51.2172 51.2172L43.503 43.503C40.0435 46.9552 35.2714 49.0922 30.0012 49.0922Z" fill="#4483FD"/>
<path d="M49.0918 30.0012H39.5451C39.5451 24.731 35.271 20.4545 29.9984 20.4545C24.7258 20.4545 20.4541 24.7286 20.4541 30.0012C20.4541 32.5686 21.4695 34.8966 23.1206 36.6155L23.1134 36.6227L34.9325 48.4419L34.9349 48.4443C43.0868 46.2686 49.0918 38.8372 49.0918 30.0012Z" fill="#4483FD"/>
<path d="M60.0002 30.0012H49.09C49.09 38.8372 43.0825 46.2686 34.9355 48.4444L43.3605 56.8694C53.224 51.9546 60.0002 41.7696 60.0002 30.0012Z" fill="#8CC1FF"/>
<path d="M30.0012 59.6592C13.4897 59.6592 0.0967001 46.3194 0.00241751 29.8296C0.00241751 29.8876 0 29.9432 0 30.0012C0 46.5708 13.4316 60.0024 30.0012 60.0024C46.5708 60.0024 60.0024 46.5708 60.0024 30.0012C60.0024 29.9432 60 29.8876 60 29.8296C59.9057 46.3194 46.5103 59.6592 30.0012 59.6592Z" fill="#212121" fill-opacity="0.1"/>
<path d="M34.9375 48.4443L35.2034 48.7103C43.215 46.4475 49.092 39.0838 49.092 30.3421V30.0012C49.092 38.8372 43.0845 46.2686 34.9375 48.4443Z" fill="white" fill-opacity="0.05"/>
<path d="M54.5477 27.2732H30.0004C28.4943 27.2732 27.2734 28.494 27.2734 30.0001C27.2734 31.5062 28.4943 32.7271 30.0004 32.7271H54.5453C56.0514 32.7271 57.2722 31.5062 57.2722 30.0001C57.2746 28.494 56.0538 27.2732 54.5477 27.2732Z" fill="white"/>
<path opacity="0.5" d="M54.5477 27.2732H30.0004C28.4943 27.2732 27.2734 28.494 27.2734 30.0001C27.2734 31.5062 28.4943 32.7271 30.0004 32.7271H54.5453C56.0514 32.7271 57.2722 31.5062 57.2722 30.0001C57.2746 28.494 56.0538 27.2732 54.5477 27.2732Z" fill="white"/>
<path d="M5.45341 32.0465C6.58295 32.0465 7.49862 31.1308 7.49862 30.0013C7.49862 28.8717 6.58295 27.9561 5.45341 27.9561C4.32387 27.9561 3.4082 28.8717 3.4082 30.0013C3.4082 31.1308 4.32387 32.0465 5.45341 32.0465Z" fill="white"/>
<path d="M30.0003 7.49911C31.1298 7.49911 32.0455 6.58344 32.0455 5.4539C32.0455 4.32436 31.1298 3.40869 30.0003 3.40869C28.8707 3.40869 27.9551 4.32436 27.9551 5.4539C27.9551 6.58344 28.8707 7.49911 30.0003 7.49911Z" fill="white"/>
<path d="M30.0003 56.5913C31.1298 56.5913 32.0455 55.6756 32.0455 54.5461C32.0455 53.4165 31.1298 52.5009 30.0003 52.5009C28.8707 52.5009 27.9551 53.4165 27.9551 54.5461C27.9551 55.6756 28.8707 56.5913 30.0003 56.5913Z" fill="white"/>
<path d="M12.6136 14.6888C13.7431 14.6888 14.6588 13.7731 14.6588 12.6436C14.6588 11.5141 13.7431 10.5984 12.6136 10.5984C11.484 10.5984 10.5684 11.5141 10.5684 12.6436C10.5684 13.7731 11.484 14.6888 12.6136 14.6888Z" fill="white"/>
<path d="M12.6136 49.4331C13.7431 49.4331 14.6588 48.5174 14.6588 47.3879C14.6588 46.2583 13.7431 45.3427 12.6136 45.3427C11.484 45.3427 10.5684 46.2583 10.5684 47.3879C10.5684 48.5174 11.484 49.4331 12.6136 49.4331Z" fill="white"/>
<path d="M47.388 49.4331C48.5175 49.4331 49.4332 48.5174 49.4332 47.3879C49.4332 46.2583 48.5175 45.3427 47.388 45.3427C46.2584 45.3427 45.3428 46.2583 45.3428 47.3879C45.3428 48.5174 46.2584 49.4331 47.388 49.4331Z" fill="white"/>
<path d="M30.0014 27.6152H54.5463C55.9943 27.6152 57.1789 28.7466 57.2635 30.1729C57.2659 30.1149 57.2732 30.0593 57.2732 30.0012C57.2732 28.4951 56.0524 27.2743 54.5463 27.2743H30.0014C28.4953 27.2743 27.2744 28.4951 27.2744 30.0012C27.2744 30.0593 27.2768 30.1149 27.2841 30.1729C27.3687 28.7466 28.5509 27.6152 30.0014 27.6152Z" fill="white" fill-opacity="0.2"/>
<path d="M57.2635 30.1704C57.1741 31.5943 55.9919 32.7281 54.5463 32.7281H30.0014C28.5533 32.7281 27.3687 31.5967 27.2841 30.1704C27.2768 30.2284 27.2744 30.284 27.2744 30.3396C27.2744 31.8457 28.4953 33.0666 30.0014 33.0666H54.5463C56.0524 33.0666 57.2732 31.8457 57.2732 30.3396C57.2732 30.284 57.2708 30.2284 57.2635 30.1704Z" fill="#212121" fill-opacity="0.2"/>
<path d="M30.0012 11.251C35.2713 11.251 40.0435 13.3881 43.5005 16.8427L51.3816 8.9568C51.3235 8.89878 51.2679 8.84076 51.2123 8.78516L43.5005 16.4994C40.0435 13.0448 35.2713 10.9077 30.0012 10.9077C19.456 10.9077 10.9102 19.4536 10.9102 29.9987C10.9102 30.0567 10.9126 30.1124 10.9126 30.1704C11.0044 19.705 19.514 11.251 30.0012 11.251Z" fill="#212121" fill-opacity="0.1"/>
<path d="M30.0012 60.0024C46.5704 60.0024 60.0024 46.5704 60.0024 30.0012C60.0024 13.432 46.5704 0 30.0012 0C13.432 0 0 13.432 0 30.0012C0 46.5704 13.432 60.0024 30.0012 60.0024Z" fill="url(#paint0_radial_622_13206)"/>
</g>
<defs>
<radialGradient id="paint0_radial_622_13206" cx="0" cy="0" r="1" gradientUnits="userSpaceOnUse" gradientTransform="translate(8.79804 8.72972) scale(59.8988)">
<stop stop-color="white" stop-opacity="0.1"/>
<stop offset="1" stop-color="white" stop-opacity="0"/>
</radialGradient>
<clipPath id="clip0_622_13206">
<rect width="60" height="60" fill="white"/>
</clipPath>
</defs>
</svg>
