<svg width="20" height="20" viewBox="0 0 20 20" fill="none" xmlns="http://www.w3.org/2000/svg">
<path fill-rule="evenodd" clip-rule="evenodd" d="M13.1252 5C13.1252 3.27411 11.7261 1.875 10.0002 1.875C8.27427 1.875 6.87516 3.27411 6.87516 5C6.87516 6.72589 8.27427 8.125 10.0002 8.125C11.7261 8.125 13.1252 6.72589 13.1252 5ZM10.0002 3.125C11.0357 3.125 11.8752 3.96447 11.8752 5C11.8752 6.03553 11.0357 6.875 10.0002 6.875C8.96463 6.875 8.12516 6.03553 8.12516 5C8.12516 3.96447 8.96463 3.125 10.0002 3.125Z" fill="#4483FD"/>
<path fill-rule="evenodd" clip-rule="evenodd" d="M7.7085 15C7.7085 13.2741 6.30939 11.875 4.5835 11.875C2.85761 11.875 1.4585 13.2741 1.4585 15C1.4585 16.7259 2.85761 18.125 4.5835 18.125C6.30939 18.125 7.7085 16.7259 7.7085 15ZM4.5835 13.125C5.61903 13.125 6.4585 13.9645 6.4585 15C6.4585 16.0355 5.61903 16.875 4.5835 16.875C3.54796 16.875 2.7085 16.0355 2.7085 15C2.7085 13.9645 3.54796 13.125 4.5835 13.125Z" fill="#4483FD"/>
<path fill-rule="evenodd" clip-rule="evenodd" d="M15.4168 11.875C17.1427 11.875 18.5418 13.2741 18.5418 15C18.5418 16.7259 17.1427 18.125 15.4168 18.125C13.6909 18.125 12.2918 16.7259 12.2918 15C12.2918 13.2741 13.6909 11.875 15.4168 11.875ZM17.2918 15C17.2918 13.9645 16.4524 13.125 15.4168 13.125C14.3813 13.125 13.5418 13.9645 13.5418 15C13.5418 16.0355 14.3813 16.875 15.4168 16.875C16.4524 16.875 17.2918 16.0355 17.2918 15Z" fill="#4483FD"/>
<path d="M6.00406 6.30192C6.26286 6.07351 6.28748 5.67855 6.05907 5.41975C5.83065 5.16096 5.43569 5.13633 5.1769 5.36475C3.66413 6.69993 2.7085 8.65543 2.7085 10.8334C2.7085 11.1785 2.98832 11.4584 3.3335 11.4584C3.67867 11.4584 3.9585 11.1785 3.9585 10.8334C3.9585 9.02895 4.74873 7.40989 6.00406 6.30192Z" fill="#4483FD"/>
<path d="M14.8234 5.36475C14.5646 5.13633 14.1697 5.16096 13.9413 5.41975C13.7128 5.67855 13.7375 6.07351 13.9963 6.30192C15.2516 7.40989 16.0418 9.02895 16.0418 10.8334C16.0418 11.1785 16.3217 11.4584 16.6668 11.4584C17.012 11.4584 17.2918 11.1785 17.2918 10.8334C17.2918 8.65543 16.3362 6.69993 14.8234 5.36475Z" fill="#4483FD"/>
<path d="M8.48928 16.6847C8.155 16.5987 7.81426 16.7999 7.72822 17.1342C7.64218 17.4685 7.84343 17.8092 8.17771 17.8953C8.76087 18.0454 9.37167 18.125 10.0002 18.125C10.6287 18.125 11.2395 18.0454 11.8226 17.8953C12.1569 17.8092 12.3581 17.4685 12.2721 17.1342C12.1861 16.7999 11.8453 16.5987 11.511 16.6847C11.0288 16.8088 10.5227 16.875 10.0002 16.875C9.47766 16.875 8.97152 16.8088 8.48928 16.6847Z" fill="#4483FD"/>
</svg>
