<svg width="20" height="20" viewBox="0 0 20 20" fill="none" xmlns="http://www.w3.org/2000/svg">
<path d="M11.4582 8.33317C11.4582 8.67835 11.738 8.95817 12.0832 8.95817H12.6576L10.9805 10.6353C10.8991 10.7167 10.7672 10.7167 10.6859 10.6353L9.36437 9.31382C8.79485 8.7443 7.87149 8.7443 7.30197 9.31382L5.39123 11.2246C5.14715 11.4686 5.14715 11.8644 5.39123 12.1084C5.63531 12.3525 6.03103 12.3525 6.27511 12.1084L8.18586 10.1977C8.26722 10.1163 8.39913 10.1163 8.48048 10.1977L9.80197 11.5192C10.3715 12.0887 11.2949 12.0887 11.8644 11.5192L13.5415 9.84205V10.4165C13.5415 10.7617 13.8213 11.0415 14.1665 11.0415C14.5117 11.0415 14.7915 10.7617 14.7915 10.4165V8.33317C14.7915 7.98799 14.5117 7.70817 14.1665 7.70817H12.0832C11.738 7.70817 11.4582 7.98799 11.4582 8.33317Z" fill="#4483FD"/>
<path fill-rule="evenodd" clip-rule="evenodd" d="M9.95202 1.0415C8.02836 1.04149 6.52083 1.04148 5.34459 1.19963C4.14065 1.36149 3.19063 1.69928 2.44495 2.44495C1.69928 3.19063 1.36149 4.14065 1.19963 5.34459C1.04148 6.52083 1.04149 8.02836 1.0415 9.95202V10.0477C1.04149 11.9713 1.04148 13.4788 1.19963 14.6551C1.36149 15.859 1.69928 16.8091 2.44495 17.5547C3.19063 18.3004 4.14065 18.6382 5.34459 18.8C6.52083 18.9582 8.02836 18.9582 9.95203 18.9582H10.0476C11.9713 18.9582 13.4788 18.9582 14.6551 18.8C15.859 18.6382 16.8091 18.3004 17.5547 17.5547C18.3004 16.8091 18.6382 15.859 18.8 14.6551C18.9582 13.4788 18.9582 11.9713 18.9582 10.0476V9.95203C18.9582 8.02836 18.9582 6.52083 18.8 5.34459C18.6382 4.14065 18.3004 3.19063 17.5547 2.44495C16.8091 1.69928 15.859 1.36149 14.6551 1.19963C13.4788 1.04148 11.9713 1.04149 10.0477 1.0415H9.95202ZM3.32883 3.32883C3.80355 2.85412 4.44582 2.58171 5.51115 2.43848C6.59447 2.29283 8.01798 2.2915 9.99984 2.2915C11.9817 2.2915 13.4052 2.29283 14.4885 2.43848C15.5539 2.58171 16.1961 2.85412 16.6708 3.32883C17.1456 3.80355 17.418 4.44582 17.5612 5.51115C17.7068 6.59447 17.7082 8.01798 17.7082 9.99984C17.7082 11.9817 17.7068 13.4052 17.5612 14.4885C17.418 15.5539 17.1456 16.1961 16.6708 16.6708C16.1961 17.1456 15.5539 17.418 14.4885 17.5612C13.4052 17.7068 11.9817 17.7082 9.99984 17.7082C8.01798 17.7082 6.59447 17.7068 5.51115 17.5612C4.44582 17.418 3.80355 17.1456 3.32883 16.6708C2.85412 16.1961 2.58171 15.5539 2.43848 14.4885C2.29283 13.4052 2.2915 11.9817 2.2915 9.99984C2.2915 8.01798 2.29283 6.59447 2.43848 5.51115C2.58171 4.44582 2.85412 3.80355 3.32883 3.32883Z" fill="#4483FD"/>
</svg>
