<svg width="32" height="33" viewBox="0 0 32 33" fill="none" xmlns="http://www.w3.org/2000/svg">
<path d="M7.55941 13.7192L11.6423 8.1951C14.2814 4.62437 15.601 2.839 16.8321 3.21629C18.0633 3.59357 18.0633 5.78332 18.0633 10.1628V10.5758C18.0633 12.1554 18.0633 12.9451 18.568 13.4406L18.5947 13.4662C19.1103 13.9512 19.9323 13.9512 21.5763 13.9512C24.5349 13.9512 26.0141 13.9512 26.514 14.8484C26.5223 14.8633 26.5304 14.8782 26.5382 14.8933C27.0101 15.8045 26.1536 16.9633 24.4406 19.2809L20.3578 24.8049C17.7186 28.3756 16.399 30.161 15.1678 29.7837C13.9367 29.4064 13.9367 27.2166 13.9368 22.8371L13.9368 22.4243C13.9368 20.8447 13.9368 20.0549 13.4321 19.5595L13.4054 19.5338C12.8898 19.0489 12.0678 19.0489 10.4237 19.0489C7.46522 19.0489 5.98597 19.0489 5.48604 18.1516C5.47776 18.1368 5.46971 18.1218 5.4619 18.1067C4.98996 17.1956 5.84644 16.0368 7.55941 13.7192Z" fill="#F2994A"/>
</svg>
