<svg width="24" height="25" viewBox="0 0 24 25" fill="none" xmlns="http://www.w3.org/2000/svg">
<path fill-rule="evenodd" clip-rule="evenodd" d="M8.30134 3.75H15.6995C16.5979 3.74997 17.3472 3.74995 17.9419 3.82991C18.5697 3.91432 19.1365 4.09999 19.592 4.55546C20.0475 5.01093 20.2331 5.57773 20.3176 6.20552C20.3975 6.80031 20.3975 7.54953 20.3975 8.44801V15.732L21.9101 17.2932L21.9139 17.2969L21.921 17.304L21.9288 17.312L21.9344 17.3177L21.9443 17.3281L21.9549 17.3394L21.9592 17.344L21.9673 17.3529L21.9762 17.3631L21.9844 17.3728C21.987 17.376 21.9913 17.3812 21.9965 17.3878C22.3679 17.8187 22.6995 18.462 22.7449 19.1051L22.7453 19.1089C22.7464 19.1193 22.7471 19.1277 22.7475 19.1325L22.7483 19.1452L22.749 19.1586L22.7494 19.1706L22.7496 19.1769L22.7498 19.1925L22.7499 19.2067L22.7499 19.2148L22.7498 19.2259L22.7496 19.2359L22.7495 19.2407C22.7495 19.2512 22.7495 19.2624 22.7495 19.2739C22.7497 19.4047 22.75 19.5929 22.7449 19.6734C22.6576 21.0556 21.556 22.1572 20.1738 22.2445C20.0866 22.25 19.9894 22.25 19.8632 22.25H4.13757C4.0114 22.25 3.91422 22.25 3.82699 22.2445C2.44479 22.1572 1.34321 21.0556 1.25587 19.6734C1.25082 19.5935 1.25112 19.4069 1.25133 19.2764C1.25135 19.2639 1.25137 19.252 1.25138 19.2406L1.25124 19.2359L1.25105 19.2259L1.25098 19.2148L1.25098 19.2067L1.25108 19.1925L1.25131 19.1769L1.25146 19.1706L1.25187 19.1586L1.25256 19.1452L1.25343 19.1325C1.2538 19.1277 1.25449 19.1193 1.25562 19.1089L1.25603 19.1051C1.30134 18.4621 1.63281 17.8187 2.00435 17.3878C2.00956 17.3811 2.01384 17.3759 2.01648 17.3728L2.02467 17.3631L2.03355 17.3529L2.0416 17.344L2.04586 17.3394L2.05651 17.3281L2.06638 17.3177L2.07196 17.312L2.07978 17.304L2.08688 17.297L2.09071 17.2932L3.60334 15.732L3.60334 8.44801C3.60331 7.54953 3.60329 6.80031 3.68325 6.20552C3.76766 5.57773 3.95333 5.01093 4.4088 4.55546C4.86427 4.09999 5.43107 3.91432 6.05886 3.82991C6.65364 3.74995 7.40286 3.74997 8.30134 3.75ZM4.67097 16.7857L3.15686 18.3485C2.92902 18.6025 2.76291 18.9752 2.7514 19.2263C2.75139 19.248 2.75137 19.2699 2.75134 19.2919C2.75129 19.3452 2.75123 19.399 2.75139 19.4492C2.75151 19.4864 2.75175 19.5186 2.75215 19.5443C2.75245 19.5641 2.75279 19.5746 2.7529 19.5782C2.7926 20.2064 3.2933 20.7078 3.92158 20.7475C3.955 20.7496 4.00043 20.75 4.16108 20.75H19.8397C20.0004 20.75 20.0458 20.7496 20.0792 20.7475C20.7075 20.7078 21.2082 20.2071 21.2479 19.5788C21.2477 19.5824 21.2482 19.5735 21.2487 19.5441C21.2491 19.5184 21.2493 19.4861 21.2495 19.449C21.2496 19.3974 21.2496 19.3418 21.2495 19.287C21.2495 19.2666 21.2495 19.2463 21.2495 19.2263C21.238 18.9753 21.0718 18.6025 20.8439 18.3485L19.3298 16.7857H4.67097ZM18.8975 15.2857V8.5C18.8975 7.53599 18.8959 6.88843 18.8309 6.40539C18.7689 5.94393 18.6617 5.74644 18.5313 5.61612C18.401 5.4858 18.2035 5.37858 17.7421 5.31654C17.259 5.2516 16.6115 5.25 15.6475 5.25H8.35334C7.38933 5.25 6.74177 5.2516 6.25873 5.31654C5.79727 5.37858 5.59977 5.4858 5.46946 5.61612C5.33914 5.74644 5.23192 5.94393 5.16988 6.40539C5.10493 6.88843 5.10334 7.53599 5.10334 8.5V15.2857H18.8975ZM21.6701 18.5238C21.6777 18.5214 21.6849 18.519 21.6918 18.5165C21.6946 18.5149 21.6974 18.5133 21.7003 18.5116C21.6903 18.5158 21.6802 18.5199 21.6701 18.5238ZM21.7166 18.5259C21.7226 18.5229 21.7284 18.5201 21.7341 18.5175C21.7366 18.5167 21.7393 18.516 21.742 18.5153C21.7335 18.5188 21.725 18.5223 21.7166 18.5259ZM2.28447 18.5259C2.27863 18.523 2.27294 18.5202 2.26742 18.5177C2.2649 18.517 2.26233 18.5163 2.2597 18.5156C2.268 18.519 2.27626 18.5224 2.28447 18.5259ZM2.33137 18.524C2.321 18.52 2.31063 18.5158 2.3003 18.5115C2.30328 18.5132 2.30622 18.5149 2.30911 18.5165C2.31615 18.5191 2.32359 18.5216 2.33137 18.524ZM8.7504 19C8.7504 18.5858 9.08619 18.25 9.5004 18.25H14.5004C14.9146 18.25 15.2504 18.5858 15.2504 19C15.2504 19.4142 14.9146 19.75 14.5004 19.75H9.5004C9.08619 19.75 8.7504 19.4142 8.7504 19Z" fill="#4483FD"/>
<path d="M12.7504 7.25C12.7504 7.66422 12.4146 8 12.0004 8C11.5862 8 11.2504 7.66422 11.2504 7.25C11.2504 6.83579 11.5862 6.5 12.0004 6.5C12.4146 6.5 12.7504 6.83579 12.7504 7.25Z" fill="#4483FD"/>
</svg>
