<svg width="20" height="20" viewBox="0 0 20 20" fill="none" xmlns="http://www.w3.org/2000/svg">
<path fill-rule="evenodd" clip-rule="evenodd" d="M9.99998 8.95855C9.5819 8.95855 9.32137 9.22922 9.1779 9.41657C9.04096 9.59538 8.90306 9.8429 8.76168 10.0967L8.66044 10.2783C8.64144 10.3124 8.62648 10.3392 8.6134 10.3621C8.59062 10.3675 8.56414 10.3735 8.53103 10.381L8.33285 10.4258C8.05968 10.4875 7.78819 10.5489 7.57979 10.631C7.34967 10.7217 7.03775 10.8983 6.91753 11.2849C6.79943 11.6647 6.94846 11.9863 7.07862 12.1931C7.19907 12.3844 7.38215 12.5984 7.56958 12.8175L7.70346 12.9741C7.7322 13.0077 7.75386 13.033 7.77211 13.0549C7.76962 13.0852 7.76622 13.1205 7.76164 13.1677L7.74149 13.3755C7.71301 13.6688 7.68549 13.9522 7.69559 14.1789C7.70618 14.4166 7.76323 14.7765 8.08587 15.0214C8.41871 15.2741 8.7863 15.219 9.0194 15.1522C9.23419 15.0907 9.48797 14.9737 9.74358 14.856L9.92925 14.7705C9.95712 14.7576 9.98003 14.7471 9.99998 14.7381C10.0095 14.7424 10.0197 14.747 10.0309 14.7521C10.043 14.7577 10.0562 14.7638 10.0707 14.7705L10.2564 14.856C10.512 14.9737 10.7658 15.0907 10.9806 15.1522C11.2137 15.219 11.5813 15.2741 11.9141 15.0214C12.2367 14.7765 12.2938 14.4166 12.3044 14.1789C12.3145 13.9522 12.287 13.6688 12.2585 13.3755L12.2383 13.1677C12.2338 13.1205 12.2304 13.0852 12.2279 13.0549C12.2461 13.033 12.2678 13.0077 12.2965 12.9741L12.4304 12.8175C12.6178 12.5984 12.8009 12.3844 12.9214 12.1931C13.0515 11.9863 13.2005 11.6647 13.0824 11.2849C12.9622 10.8983 12.6503 10.7217 12.4202 10.631C12.2118 10.5489 11.9403 10.4875 11.6671 10.4258L11.4689 10.381C11.4358 10.3735 11.4093 10.3675 11.3866 10.3621C11.3735 10.3392 11.3585 10.3124 11.3395 10.2783L11.2383 10.0967C11.0969 9.84292 10.959 9.59539 10.8221 9.41657C10.6786 9.22922 10.4181 8.95855 9.99998 8.95855ZM9.83419 10.74C9.89767 10.6261 9.95154 10.5295 9.99998 10.4456C10.0484 10.5295 10.1023 10.6261 10.1658 10.74L10.2477 10.8869L10.2663 10.9208C10.3318 11.0404 10.4401 11.2386 10.6208 11.3758C10.8053 11.5159 11.0272 11.564 11.157 11.5922L11.1931 11.6001L11.3522 11.6361C11.4981 11.6692 11.6171 11.6961 11.7187 11.7217C11.6526 11.8031 11.5667 11.9042 11.455 12.0348L11.3465 12.1616L11.3215 12.1906C11.2316 12.2942 11.0864 12.4614 11.0192 12.6774C10.9528 12.8908 10.9757 13.1106 10.9902 13.2492L10.9942 13.2882L11.0105 13.4574C11.0258 13.6143 11.0376 13.7395 11.0454 13.8414C10.9586 13.8031 10.8598 13.7577 10.7425 13.7036L10.5935 13.635L10.5599 13.6193C10.4403 13.5629 10.2322 13.4648 9.99998 13.4648C9.76776 13.4648 9.55968 13.5629 9.4401 13.6193L9.40646 13.635L9.25751 13.7036C9.14015 13.7577 9.04137 13.8031 8.95453 13.8414C8.9624 13.7395 8.97422 13.6143 8.98942 13.4574L9.00582 13.2882L9.00979 13.2492C9.02423 13.1106 9.04712 12.8908 8.98076 12.6774C8.9136 12.4614 8.76838 12.2942 8.67844 12.1906L8.65346 12.1616L8.54501 12.0348C8.43327 11.9042 8.34737 11.8031 8.28123 11.7217C8.38291 11.6961 8.50182 11.6692 8.64779 11.6361L8.80688 11.6001L8.84297 11.5922C8.97274 11.564 9.19464 11.5159 9.37912 11.3758C9.55983 11.2386 9.6682 11.0404 9.73365 10.9208L9.75226 10.8869L9.83419 10.74ZM8.94943 14.1765C8.94941 14.1765 8.9492 14.1757 8.94888 14.1739L8.94943 14.1765ZM11.0505 14.1765L11.0511 14.1739C11.0508 14.1757 11.0506 14.1765 11.0505 14.1765Z" fill="#4483FD"/>
<path fill-rule="evenodd" clip-rule="evenodd" d="M9.99999 1.04175C9.41137 1.04175 9.03751 1.45788 8.78611 1.83106C8.53096 2.20981 8.26469 2.75549 7.94901 3.40244L6.06336 7.2664C5.88083 7.64044 5.76341 7.87944 5.66153 8.04526C5.59082 8.16035 5.55219 8.19739 5.54313 8.20525C5.5171 8.21735 5.49281 8.22122 5.47043 8.21964C5.45599 8.21162 5.41549 8.18605 5.34103 8.1172C5.20596 7.99232 5.0378 7.8021 4.77111 7.4985L4.74686 7.47089C4.26962 6.92758 3.87979 6.48377 3.55869 6.1836C3.39405 6.02968 3.221 5.88783 3.03912 5.78616C2.85418 5.68279 2.62194 5.59971 2.35696 5.62298C1.96273 5.6576 1.61292 5.85698 1.36767 6.15331C1.07178 6.5108 1.03848 7.01057 1.04184 7.44261C1.04547 7.90933 1.10377 8.52875 1.17622 9.29843L1.374 11.3999C1.52816 13.038 1.6489 14.3209 1.85805 15.3176C2.07113 16.333 2.39145 17.1364 3.00314 17.7622C3.62402 18.3973 4.38692 18.6879 5.32974 18.8258C6.23665 18.9584 7.3822 18.9584 8.81716 18.9584H11.1828C12.6178 18.9584 13.7633 18.9584 14.6702 18.8258C15.6131 18.6879 16.376 18.3973 16.9968 17.7622C17.6085 17.1364 17.9288 16.333 18.1419 15.3176C18.3511 14.3209 18.4718 13.038 18.626 11.3999L18.8238 9.29841C18.8962 8.52875 18.9545 7.90932 18.9581 7.44261C18.9615 7.01057 18.9282 6.5108 18.6323 6.15331C18.3871 5.85698 18.0372 5.6576 17.643 5.62298C17.378 5.59971 17.1458 5.68279 16.9609 5.78616C16.779 5.88783 16.6059 6.02968 16.4413 6.1836C16.1202 6.48377 15.7303 6.92758 15.2531 7.4709L15.2289 7.4985C14.9622 7.8021 14.794 7.99232 14.6589 8.11721C14.5845 8.18605 14.544 8.21162 14.5295 8.21964C14.5072 8.22122 14.4829 8.21735 14.4568 8.20525C14.4478 8.19739 14.4092 8.16035 14.3384 8.04526C14.2366 7.87944 14.1191 7.64044 13.9366 7.2664L12.051 3.40243C11.7353 2.75548 11.469 2.2098 11.2139 1.83106C10.9625 1.45788 10.5886 1.04175 9.99999 1.04175ZM9.05079 3.9949C9.39388 3.29186 9.6225 2.82679 9.8228 2.52946C9.90764 2.40353 9.96593 2.34057 9.99999 2.31025C10.034 2.34057 10.0923 2.40353 10.1772 2.52946C10.3775 2.82679 10.6061 3.29185 10.9492 3.9949L12.8264 7.84149C12.9919 8.18082 13.1358 8.47565 13.2734 8.69963C13.4143 8.92899 13.6002 9.17359 13.8896 9.31927C14.1508 9.45072 14.4451 9.49901 14.7364 9.45298C15.0641 9.40118 15.3128 9.21504 15.5076 9.035C15.6963 8.86047 15.9076 8.61991 16.1473 8.34704L16.168 8.32345C16.6753 7.74587 17.0245 7.34953 17.2949 7.09674C17.4287 6.97164 17.5167 6.90749 17.5708 6.87727L17.5715 6.87686C17.5996 6.88712 17.6323 6.90746 17.6646 6.94468C17.6645 6.94464 17.6646 6.94466 17.6646 6.94468C17.6643 6.94482 17.6647 6.94644 17.6658 6.94996C17.6736 6.97481 17.7108 7.09302 17.7082 7.43289C17.705 7.83898 17.6524 8.4042 17.5762 9.21345L17.3852 11.2428C17.2265 12.9295 17.1115 14.1417 16.9186 15.0609C16.7279 15.9694 16.4768 16.506 16.103 16.8884C15.7384 17.2614 15.27 17.4748 14.4894 17.589C13.6833 17.7069 12.6292 17.7084 11.1333 17.7084H8.86672C7.3708 17.7084 6.31671 17.7069 5.51061 17.589C4.73 17.4748 4.26163 17.2614 3.89699 16.8884C3.52317 16.506 3.27206 15.9694 3.0814 15.0609C2.88852 14.1417 2.77348 12.9295 2.61474 11.2428L2.42375 9.21345C2.34758 8.4042 2.29496 7.83898 2.2918 7.43289C2.28916 7.09308 2.32623 6.97487 2.33403 6.95C2.33514 6.94647 2.33566 6.94482 2.33539 6.94468C2.36765 6.90746 2.40033 6.88712 2.42847 6.87686L2.42921 6.87727C2.48328 6.90749 2.57124 6.97164 2.70506 7.09674C2.97548 7.34953 3.32463 7.74587 3.83198 8.32345L3.85272 8.34706C4.09237 8.61991 4.30366 8.86047 4.49242 9.035C4.68713 9.21504 4.93583 9.40119 5.26357 9.45298C5.55484 9.49901 5.84914 9.45072 6.11033 9.31927C6.39981 9.17359 6.58564 8.92899 6.72656 8.69963C6.86418 8.47566 7.00803 8.18085 7.17359 7.84154L9.05079 3.9949ZM17.6646 6.94468C17.6662 6.94652 17.6678 6.94839 17.6694 6.95031C17.6674 6.9479 17.666 6.94616 17.6652 6.94529C17.6649 6.94496 17.6647 6.94475 17.6646 6.94468ZM10.0367 2.28421C10.0367 2.2846 10.0341 2.28619 10.029 2.28781C10.0342 2.28463 10.0367 2.28382 10.0367 2.28421ZM9.97098 2.28781C9.96589 2.28619 9.96329 2.2846 9.96326 2.28421C9.96323 2.28382 9.96578 2.28463 9.97098 2.28781Z" fill="#4483FD"/>
</svg>
