<svg width="20" height="20" viewBox="0 0 20 20" fill="none" xmlns="http://www.w3.org/2000/svg">
<path d="M11.4583 8.33329C11.4583 8.67847 11.7381 8.95829 12.0833 8.95829H12.6577L10.9806 10.6354C10.8992 10.7168 10.7673 10.7168 10.686 10.6354L9.36449 9.31394C8.79498 8.74443 7.87161 8.74443 7.3021 9.31394L5.39135 11.2247C5.14727 11.4688 5.14727 11.8645 5.39135 12.1086C5.63543 12.3526 6.03116 12.3526 6.27523 12.1086L8.18598 10.1978C8.26734 10.1165 8.39925 10.1165 8.48061 10.1978L9.8021 11.5193C10.3716 12.0888 11.295 12.0888 11.8645 11.5193L13.5416 9.84218V10.4166C13.5416 10.7618 13.8214 11.0416 14.1666 11.0416C14.5118 11.0416 14.7916 10.7618 14.7916 10.4166V8.33329C14.7916 7.98812 14.5118 7.70829 14.1666 7.70829H12.0833C11.7381 7.70829 11.4583 7.98812 11.4583 8.33329Z" fill="#4483FD"/>
<path fill-rule="evenodd" clip-rule="evenodd" d="M9.95214 1.04163C8.02848 1.04162 6.52095 1.04161 5.34471 1.19975C4.14077 1.36161 3.19075 1.6994 2.44507 2.44507C1.6994 3.19075 1.36161 4.14077 1.19975 5.34471C1.04161 6.52095 1.04162 8.02848 1.04163 9.95214V10.0478C1.04162 11.9714 1.04161 13.479 1.19975 14.6552C1.36161 15.8592 1.6994 16.8092 2.44507 17.5548C3.19075 18.3005 4.14077 18.6383 5.34471 18.8002C6.52095 18.9583 8.02849 18.9583 9.95215 18.9583H10.0478C11.9714 18.9583 13.479 18.9583 14.6552 18.8002C15.8592 18.6383 16.8092 18.3005 17.5548 17.5548C18.3005 16.8092 18.6383 15.8592 18.8002 14.6552C18.9583 13.479 18.9583 11.9714 18.9583 10.0478V9.95215C18.9583 8.02849 18.9583 6.52095 18.8002 5.34471C18.6383 4.14077 18.3005 3.19075 17.5548 2.44507C16.8092 1.6994 15.8592 1.36161 14.6552 1.19975C13.479 1.04161 11.9714 1.04162 10.0478 1.04163H9.95214ZM3.32896 3.32896C3.80367 2.85424 4.44594 2.58183 5.51127 2.4386C6.59459 2.29295 8.01811 2.29163 9.99996 2.29163C11.9818 2.29163 13.4053 2.29295 14.4886 2.4386C15.554 2.58183 16.1962 2.85424 16.671 3.32896C17.1457 3.80367 17.4181 4.44594 17.5613 5.51127C17.707 6.59459 17.7083 8.01811 17.7083 9.99996C17.7083 11.9818 17.707 13.4053 17.5613 14.4886C17.4181 15.554 17.1457 16.1962 16.671 16.671C16.1962 17.1457 15.554 17.4181 14.4886 17.5613C13.4053 17.707 11.9818 17.7083 9.99996 17.7083C8.01811 17.7083 6.59459 17.707 5.51127 17.5613C4.44594 17.4181 3.80367 17.1457 3.32896 16.671C2.85424 16.1962 2.58183 15.554 2.4386 14.4886C2.29295 13.4053 2.29163 11.9818 2.29163 9.99996C2.29163 8.01811 2.29295 6.59459 2.4386 5.51127C2.58183 4.44594 2.85424 3.80367 3.32896 3.32896Z" fill="#4483FD"/>
</svg>
