<svg width="20" height="20" viewBox="0 0 20 20" fill="none" xmlns="http://www.w3.org/2000/svg">
<path fill-rule="evenodd" clip-rule="evenodd" d="M9.40998 2.75682C9.08187 3.18528 8.71151 3.84634 8.17356 4.81137L7.90048 5.30126C7.88402 5.33078 7.86777 5.36004 7.85167 5.389C7.60106 5.84 7.38954 6.22066 7.0487 6.4794C6.70419 6.74092 6.28422 6.83531 5.79612 6.94499C5.76476 6.95204 5.73311 6.95916 5.70118 6.96638L5.17089 7.08636C4.12479 7.32305 3.41313 7.48591 2.92568 7.678C2.45002 7.86546 2.34961 8.01904 2.31134 8.14211C2.27095 8.272 2.26975 8.47068 2.55412 8.92241C2.84274 9.38089 3.32965 9.95277 4.04176 10.7855L4.40328 11.2082C4.42429 11.2328 4.44511 11.2571 4.46572 11.2811C4.80156 11.6729 5.08159 11.9995 5.21004 12.4126C5.33772 12.8232 5.2954 13.2546 5.24409 13.7777C5.24094 13.8098 5.23776 13.8422 5.23459 13.875L5.17993 14.439C5.07235 15.5492 4.99982 16.3136 5.02435 16.8642C5.04883 17.4138 5.16491 17.5657 5.25721 17.6358C5.3393 17.6981 5.49104 17.7671 5.9854 17.6254C6.48779 17.4815 7.15549 17.176 8.13501 16.725L8.63153 16.4964C8.6621 16.4823 8.69239 16.4683 8.72242 16.4544C9.17641 16.2445 9.57028 16.0625 10 16.0625C10.4297 16.0625 10.8236 16.2445 11.2776 16.4544C11.3076 16.4683 11.3379 16.4823 11.3685 16.4964L11.865 16.725C12.8445 17.176 13.5122 17.4815 14.0146 17.6254C14.509 17.7671 14.6607 17.6981 14.7428 17.6358C14.8351 17.5657 14.9512 17.4138 14.9757 16.8642C15.0002 16.3136 14.9277 15.5492 14.8201 14.439L14.7654 13.875C14.7623 13.8422 14.7591 13.8098 14.7559 13.7777C14.7046 13.2546 14.6623 12.8232 14.79 12.4126C14.9184 11.9995 15.1985 11.6729 15.5343 11.2811C15.5549 11.2571 15.5757 11.2328 15.5967 11.2082L15.9583 10.7855C16.6704 9.95277 17.1573 9.38089 17.4459 8.92241C17.7303 8.47068 17.7291 8.272 17.6887 8.14211C17.6504 8.01904 17.55 7.86546 17.0743 7.678C16.5869 7.48591 15.8752 7.32305 14.8291 7.08636L14.2988 6.96638C14.2669 6.95915 14.2353 6.95204 14.2039 6.94499C13.7158 6.83531 13.2958 6.74092 12.9513 6.4794C12.6105 6.22066 12.399 5.84 12.1484 5.389C12.1323 5.36003 12.116 5.33078 12.0995 5.30126L11.8265 4.81137C11.2885 3.84634 10.9182 3.18528 10.59 2.75682C10.2623 2.32877 10.0948 2.29175 10 2.29175C9.90521 2.29175 9.73778 2.32877 9.40998 2.75682ZM8.41755 1.99683C8.81479 1.47811 9.30576 1.04175 10 1.04175C10.6943 1.04175 11.1852 1.47811 11.5825 1.99683C11.9728 2.50652 12.3867 3.24905 12.8925 4.15655L13.1914 4.69263C13.5185 5.27944 13.6022 5.4041 13.7071 5.48378C13.8082 5.56048 13.9385 5.60325 14.5747 5.7472L15.158 5.87918C16.1377 6.10082 16.9448 6.28341 17.5326 6.51505C18.1428 6.75551 18.6767 7.10991 18.8823 7.77093C19.0857 8.42514 18.8571 9.02702 18.5038 9.58834C18.1604 10.1337 17.612 10.775 16.9422 11.5582L16.5467 12.0206C16.1159 12.5244 16.0259 12.6477 15.9836 12.7838C15.9405 12.9225 15.9445 13.0828 16.0096 13.7544L16.0692 14.3695C16.1707 15.4162 16.2534 16.2698 16.2244 16.9198C16.195 17.5815 16.0447 18.2169 15.4986 18.6314C14.9424 19.0537 14.2951 19.0061 13.6703 18.8271C13.0645 18.6535 12.3092 18.3057 11.3921 17.8834L10.8457 17.6318C10.2479 17.3566 10.12 17.3125 10 17.3125C9.88007 17.3125 9.7521 17.3566 9.15431 17.6318L8.60793 17.8834C7.69082 18.3057 6.93554 18.6535 6.3297 18.8271C5.70489 19.0061 5.05767 19.0537 4.5014 18.6314C3.95534 18.2169 3.80506 17.5815 3.77558 16.9198C3.74663 16.2698 3.82936 15.4162 3.93081 14.3695L3.99041 13.7544C4.0555 13.0828 4.05956 12.9225 4.01642 12.7838C3.97412 12.6477 3.88412 12.5244 3.45328 12.0206L3.05787 11.5583C2.388 10.775 1.83961 10.1337 1.49627 9.58834C1.14291 9.02702 0.914282 8.42514 1.11772 7.77093C1.32328 7.10991 1.85722 6.75551 2.46738 6.51505C3.05518 6.28341 3.86228 6.10082 4.84198 5.87918L4.89503 5.86718L5.42533 5.7472C6.06152 5.60325 6.19186 5.56048 6.2929 5.48378C6.39786 5.4041 6.48154 5.27944 6.80866 4.69263L7.10749 4.15654C7.61334 3.24905 8.02723 2.50652 8.41755 1.99683Z" fill="#4483FD"/>
</svg>
