<svg width="24" height="25" viewBox="0 0 24 25" fill="none" xmlns="http://www.w3.org/2000/svg">
<path fill-rule="evenodd" clip-rule="evenodd" d="M9.94358 3.75H14.0564C15.8942 3.74998 17.3498 3.74997 18.489 3.90314C19.6614 4.06076 20.6104 4.39288 21.3588 5.14124C22.1071 5.88961 22.4392 6.83856 22.5969 8.01098C22.75 9.15019 22.75 10.6058 22.75 12.4436V12.5564C22.75 14.3942 22.75 15.8498 22.5969 16.989C22.4392 18.1614 22.1071 19.1104 21.3588 19.8588C20.6104 20.6071 19.6614 20.9392 18.489 21.0969C17.3498 21.25 15.8942 21.25 14.0564 21.25H9.94359C8.10583 21.25 6.65019 21.25 5.51098 21.0969C4.33856 20.9392 3.38961 20.6071 2.64124 19.8588C1.89288 19.1104 1.56076 18.1614 1.40314 16.989C1.24997 15.8498 1.24998 14.3942 1.25 12.5564V12.4436C1.24998 10.6058 1.24997 9.15019 1.40314 8.01098C1.56076 6.83856 1.89288 5.88961 2.64124 5.14124C3.38961 4.39288 4.33856 4.06076 5.51098 3.90314C6.65019 3.74997 8.10582 3.74998 9.94358 3.75ZM5.71085 5.38976C4.70476 5.52502 4.12511 5.77869 3.7019 6.2019C3.27869 6.62511 3.02502 7.20476 2.88976 8.21085C2.75159 9.23851 2.75 10.5932 2.75 12.5C2.75 14.4068 2.75159 15.7615 2.88976 16.7892C3.02502 17.7952 3.27869 18.3749 3.7019 18.7981C4.12511 19.2213 4.70476 19.475 5.71085 19.6102C6.73851 19.7484 8.09318 19.75 10 19.75H14C15.9068 19.75 17.2615 19.7484 18.2892 19.6102C19.2952 19.475 19.8749 19.2213 20.2981 18.7981C20.7213 18.3749 20.975 17.7952 21.1102 16.7892C21.2484 15.7615 21.25 14.4068 21.25 12.5C21.25 10.5932 21.2484 9.23851 21.1102 8.21085C20.975 7.20476 20.7213 6.62511 20.2981 6.2019C19.8749 5.77869 19.2952 5.52502 18.2892 5.38976C17.2615 5.25159 15.9068 5.25 14 5.25H10C8.09318 5.25 6.73851 5.25159 5.71085 5.38976ZM5.42383 8.01986C5.68901 7.70165 6.16193 7.65866 6.48014 7.92383L8.63903 9.72291C9.57199 10.5004 10.2197 11.0384 10.7666 11.3901C11.2959 11.7306 11.6549 11.8449 12 11.8449C12.3451 11.8449 12.7041 11.7306 13.2334 11.3901C13.7803 11.0384 14.428 10.5004 15.361 9.72291L17.5199 7.92383C17.8381 7.65866 18.311 7.70165 18.5762 8.01986C18.8413 8.33807 18.7983 8.81099 18.4801 9.07617L16.2836 10.9066C15.3973 11.6452 14.6789 12.2439 14.0448 12.6517C13.3843 13.0765 12.7411 13.3449 12 13.3449C11.2589 13.3449 10.6157 13.0765 9.95518 12.6517C9.32112 12.2439 8.60272 11.6452 7.71636 10.9066L5.51986 9.07617C5.20165 8.81099 5.15866 8.33807 5.42383 8.01986Z" fill="#4483FD"/>
</svg>
