<svg width="24" height="25" viewBox="0 0 24 25" fill="none" xmlns="http://www.w3.org/2000/svg">
<path fill-rule="evenodd" clip-rule="evenodd" d="M9.25 9.5C9.25 7.98122 10.4812 6.75 12 6.75C13.5188 6.75 14.75 7.98122 14.75 9.5C14.75 11.0188 13.5188 12.25 12 12.25C10.4812 12.25 9.25 11.0188 9.25 9.5ZM12 8.25C11.3096 8.25 10.75 8.80964 10.75 9.5C10.75 10.1904 11.3096 10.75 12 10.75C12.6904 10.75 13.25 10.1904 13.25 9.5C13.25 8.80964 12.6904 8.25 12 8.25Z" fill="#4483FD"/>
<path fill-rule="evenodd" clip-rule="evenodd" d="M12 12.75C10.8042 12.75 9.68461 12.9907 8.83616 13.415C8.03258 13.8168 7.25 14.5106 7.25 15.5L7.24987 15.5625C7.24834 16.0728 7.24576 16.9322 8.06023 17.5218C8.43818 17.7953 8.9369 17.9698 9.55469 18.081C10.1782 18.1932 10.9772 18.25 12 18.25C13.0228 18.25 13.8218 18.1932 14.4453 18.081C15.0631 17.9698 15.5618 17.7953 15.9398 17.5218C16.7542 16.9322 16.7517 16.0728 16.7501 15.5625L16.75 15.5C16.75 14.5106 15.9674 13.8168 15.1638 13.415C14.3154 12.9907 13.1958 12.75 12 12.75ZM8.75 15.5C8.75 15.3848 8.86285 15.0787 9.50698 14.7566C10.1063 14.457 10.9866 14.25 12 14.25C13.0134 14.25 13.8937 14.457 14.493 14.7566C15.1371 15.0787 15.25 15.3848 15.25 15.5C15.25 16.1045 15.2115 16.1972 15.0602 16.3067C14.9382 16.395 14.6869 16.5134 14.1797 16.6047C13.6782 16.6949 12.9772 16.75 12 16.75C11.0228 16.75 10.3218 16.6949 9.82031 16.6047C9.3131 16.5134 9.06182 16.395 8.93977 16.3067C8.78849 16.1972 8.75 16.1045 8.75 15.5Z" fill="#4483FD"/>
<path fill-rule="evenodd" clip-rule="evenodd" d="M8.72339 2.55112C10.1673 2.05658 11.0625 1.75 12 1.75C12.9375 1.75 13.8327 2.05658 15.2766 2.55112L16.004 2.80013C17.4854 3.3072 18.6286 3.69852 19.447 4.03099C19.8592 4.19846 20.2136 4.36067 20.499 4.52641C20.7737 4.6859 21.0492 4.88484 21.2364 5.15154C21.4214 5.41516 21.5171 5.73924 21.5772 6.05122C21.6397 6.37556 21.6774 6.76464 21.7017 7.21136C21.75 8.0984 21.75 9.31361 21.75 10.8898V12.4914C21.75 18.5924 17.142 21.5175 14.4017 22.7146L14.3746 22.7264C14.0348 22.8749 13.7154 23.0144 13.3484 23.1084C12.9609 23.2076 12.5493 23.25 12 23.25C11.4507 23.25 11.0391 23.2076 10.6516 23.1084C10.2846 23.0144 9.96523 22.8749 9.62543 22.7264L9.59833 22.7146C6.85803 21.5175 2.25 18.5924 2.25 12.4914V10.8899C2.25 9.31378 2.25 8.09836 2.2983 7.21136C2.32262 6.76464 2.36031 6.37556 2.42281 6.05122C2.48293 5.73924 2.5786 5.41516 2.76363 5.15154C2.95082 4.88484 3.22634 4.6859 3.50098 4.52641C3.78637 4.36067 4.14078 4.19846 4.55303 4.03099C5.3714 3.69852 6.51462 3.3072 7.99595 2.80014L8.72339 2.55112ZM12 3.25C11.3423 3.25 10.6951 3.46164 9.08062 4.0143L8.5078 4.21037C6.99521 4.72814 5.8921 5.10605 5.11759 5.42069C4.731 5.57774 4.4509 5.70935 4.25429 5.82353C4.15722 5.8799 4.09034 5.92642 4.04567 5.96273C4.0078 5.99351 3.99336 6.01095 3.99129 6.01349C3.98936 6.01663 3.97693 6.0374 3.95943 6.08654C3.93944 6.14265 3.91729 6.22309 3.89571 6.33506C3.85204 6.56169 3.81894 6.87301 3.79608 7.29292C3.75028 8.13411 3.75 9.30833 3.75 10.9167V12.4914C3.75 17.6665 7.6199 20.2135 10.1988 21.34C10.5703 21.5023 10.7848 21.5941 11.0236 21.6552C11.2517 21.7136 11.53 21.75 12 21.75C12.47 21.75 12.7483 21.7136 12.9764 21.6552C13.2152 21.5941 13.4297 21.5023 13.8012 21.34C16.3801 20.2135 20.25 17.6665 20.25 12.4914V10.9167C20.25 9.30833 20.2497 8.13411 20.2039 7.29292C20.1811 6.87301 20.148 6.56169 20.1043 6.33506C20.0827 6.22309 20.0606 6.14265 20.0406 6.08654C20.0231 6.03737 20.0106 6.0166 20.0087 6.01348C20.0066 6.01092 19.9922 5.99349 19.9543 5.96273C19.9097 5.92642 19.8428 5.8799 19.7457 5.82353C19.5491 5.70935 19.269 5.57774 18.8824 5.42069C18.1079 5.10605 17.0048 4.72814 15.4922 4.21037L14.9194 4.0143C13.3049 3.46164 12.6577 3.25 12 3.25Z" fill="#4483FD"/>
</svg>
