<svg width="24" height="25" viewBox="0 0 24 25" fill="none" xmlns="http://www.w3.org/2000/svg">
<path d="M21 6.5H3C1.9 6.5 1 7.4 1 8.5V16.5C1 17.6 1.9 18.5 3 18.5H21C22.1 18.5 23 17.6 23 16.5V8.5C23 7.4 22.1 6.5 21 6.5ZM10 13.5H8V15.5C8 16.05 7.55 16.5 7 16.5C6.45 16.5 6 16.05 6 15.5V13.5H4C3.45 13.5 3 13.05 3 12.5C3 11.95 3.45 11.5 4 11.5H6V9.5C6 8.95 6.45 8.5 7 8.5C7.55 8.5 8 8.95 8 9.5V11.5H10C10.55 11.5 11 11.95 11 12.5C11 13.05 10.55 13.5 10 13.5ZM15.5 15.5C14.67 15.5 14 14.83 14 14C14 13.17 14.67 12.5 15.5 12.5C16.33 12.5 17 13.17 17 14C17 14.83 16.33 15.5 15.5 15.5ZM19.5 12.5C18.67 12.5 18 11.83 18 11C18 10.17 18.67 9.5 19.5 9.5C20.33 9.5 21 10.17 21 11C21 11.83 20.33 12.5 19.5 12.5Z" fill="#4483FD"/>
</svg>
