<svg width="21" height="20" viewBox="0 0 21 20" fill="none" xmlns="http://www.w3.org/2000/svg">
<path fill-rule="evenodd" clip-rule="evenodd" d="M14.8383 1.5468C13.9526 1.1979 13.0967 1.43409 12.4909 1.97292C11.8999 2.49851 11.5417 3.30822 11.5417 4.16667V7.5C11.5417 8.30542 12.1946 8.95834 13 8.95834H16.3334C17.1918 8.95834 18.0015 8.60013 18.5271 8.00917C19.0659 7.40331 19.3021 6.5474 18.9532 5.66175C18.2132 3.78324 16.7168 2.28684 14.8383 1.5468ZM12.7917 7.5V4.16667C12.7917 3.6444 13.0124 3.1819 13.3216 2.90696C13.6158 2.64527 13.9811 2.55264 14.3801 2.70981C15.9361 3.32279 17.1772 4.56392 17.7902 6.11991C17.9474 6.51888 17.8548 6.88422 17.5931 7.17846C17.3181 7.48759 16.8556 7.70834 16.3334 7.70834H13C12.885 7.70834 12.7917 7.61506 12.7917 7.5Z" fill="#575B68"/>
<path fill-rule="evenodd" clip-rule="evenodd" d="M9.66273 2.39162C9.15398 2.06201 8.66183 1.96712 8.12143 2.06135C7.66252 2.14137 7.1713 2.36151 6.64848 2.59581L6.59216 2.62104C6.15728 2.8158 5.73757 3.04745 5.33786 3.31453C3.93319 4.2531 2.83838 5.58712 2.19189 7.14791C1.54539 8.70869 1.37623 10.4261 1.70582 12.0831C2.0354 13.74 2.84891 15.262 4.04349 16.4565C5.23806 17.6511 6.76004 18.4646 8.41696 18.7942C10.0739 19.1238 11.7913 18.9546 13.3521 18.3081C14.9129 17.6616 16.2469 16.5668 17.1855 15.1622C17.4526 14.7624 17.6842 14.3427 17.879 13.9079L17.9042 13.8515C18.1385 13.3287 18.3586 12.8375 18.4387 12.3786C18.5329 11.8382 18.438 11.346 18.1084 10.8373C17.7531 10.2888 17.2666 10.0208 16.6717 9.89934C16.1434 9.79152 15.4834 9.79158 14.7268 9.79166L13.4167 9.79166C12.6133 9.79166 12.0737 9.79033 11.6712 9.73621C11.2866 9.68451 11.1221 9.59516 11.0135 9.48656C10.9049 9.37797 10.8155 9.21339 10.7638 8.82883C10.7097 8.4263 10.7084 7.88667 10.7084 7.08333L10.7084 5.77318C10.7084 5.01667 10.7085 4.3566 10.6007 3.82837C10.4792 3.23345 10.2112 2.74696 9.66273 2.39162ZM7.10306 3.76187C7.70239 3.49347 8.04979 3.34271 8.33615 3.29277C8.55749 3.25418 8.73137 3.27763 8.98307 3.4407C9.19505 3.57803 9.30726 3.74196 9.37593 4.07837C9.45537 4.46752 9.45836 4.99869 9.45836 5.83333L9.45836 7.12666C9.45833 7.87538 9.45831 8.49975 9.52495 8.99539C9.59529 9.51855 9.75001 9.99089 10.1296 10.3704C10.5091 10.75 10.9815 10.9047 11.5046 10.9751C12.0003 11.0417 12.6246 11.0417 13.3733 11.0417L14.6667 11.0417C15.5013 11.0417 16.0325 11.0447 16.4216 11.1241C16.7581 11.1928 16.922 11.305 17.0593 11.5169C17.2224 11.7686 17.2458 11.9425 17.2072 12.1639C17.1573 12.4502 17.0066 12.7976 16.7382 13.397C16.5719 13.7682 16.3742 14.1265 16.1462 14.4677C15.3449 15.6668 14.2061 16.6014 12.8738 17.1533C11.5414 17.7052 10.0753 17.8496 8.66082 17.5682C7.24638 17.2869 5.94713 16.5924 4.92737 15.5726C3.90761 14.5529 3.21315 13.2536 2.9318 11.8392C2.65045 10.4247 2.79485 8.95864 3.34674 7.62626C3.89862 6.29388 4.83322 5.15508 6.03232 4.35386C6.37355 4.12586 6.73183 3.92811 7.10306 3.76187Z" fill="#575B68"/>
</svg>
