<svg width="24" height="25" viewBox="0 0 24 25" fill="none" xmlns="http://www.w3.org/2000/svg">
<path d="M9 16.5C9 17.0523 8.55229 17.5 8 17.5C7.44772 17.5 7 17.0523 7 16.5C7 15.9477 7.44772 15.5 8 15.5C8.55229 15.5 9 15.9477 9 16.5Z" fill="#4483FD"/>
<path d="M13 16.5C13 17.0523 12.5523 17.5 12 17.5C11.4477 17.5 11 17.0523 11 16.5C11 15.9477 11.4477 15.5 12 15.5C12.5523 15.5 13 15.9477 13 16.5Z" fill="#4483FD"/>
<path d="M16 17.5C16.5523 17.5 17 17.0523 17 16.5C17 15.9477 16.5523 15.5 16 15.5C15.4477 15.5 15 15.9477 15 16.5C15 17.0523 15.4477 17.5 16 17.5Z" fill="#4483FD"/>
<path fill-rule="evenodd" clip-rule="evenodd" d="M5.25 8.5V9.80277C5.02317 9.81872 4.80938 9.83948 4.60825 9.86652C3.70814 9.98754 2.95027 10.2464 2.34835 10.8483C1.74643 11.4503 1.48754 12.2081 1.36652 13.1082C1.24996 13.9752 1.24998 15.0775 1.25 16.4451V16.5549C1.24998 17.9225 1.24996 19.0248 1.36652 19.8918C1.48754 20.7919 1.74643 21.5497 2.34835 22.1516C2.95027 22.7536 3.70814 23.0125 4.60825 23.1335C5.47522 23.25 6.57754 23.25 7.94513 23.25H16.0549C17.4225 23.25 18.5248 23.25 19.3918 23.1335C20.2919 23.0125 21.0497 22.7536 21.6517 22.1516C22.2536 21.5497 22.5125 20.7919 22.6335 19.8918C22.75 19.0248 22.75 17.9225 22.75 16.5549V16.4451C22.75 15.0775 22.75 13.9752 22.6335 13.1082C22.5125 12.2081 22.2536 11.4503 21.6517 10.8483C21.0497 10.2464 20.2919 9.98754 19.3918 9.86652C19.1906 9.83948 18.9768 9.81872 18.75 9.80277V8.5C18.75 4.77208 15.7279 1.75 12 1.75C8.27208 1.75 5.25 4.77208 5.25 8.5ZM12 3.25C9.10051 3.25 6.75 5.60051 6.75 8.5V9.75344C7.12349 9.74999 7.52152 9.74999 7.94499 9.75H16.0549C16.4783 9.74999 16.8765 9.74999 17.25 9.75344V8.5C17.25 5.60051 14.8995 3.25 12 3.25ZM4.80812 11.3531C4.07435 11.4518 3.68577 11.6322 3.40901 11.909C3.13225 12.1858 2.9518 12.5743 2.85315 13.3081C2.75159 14.0635 2.75 15.0646 2.75 16.5C2.75 17.9354 2.75159 18.9365 2.85315 19.6919C2.9518 20.4257 3.13225 20.8142 3.40901 21.091C3.68577 21.3678 4.07435 21.5482 4.80812 21.6469C5.56347 21.7484 6.56459 21.75 8 21.75H16C17.4354 21.75 18.4365 21.7484 19.1919 21.6469C19.9257 21.5482 20.3142 21.3678 20.591 21.091C20.8678 20.8142 21.0482 20.4257 21.1469 19.6919C21.2484 18.9365 21.25 17.9354 21.25 16.5C21.25 15.0646 21.2484 14.0635 21.1469 13.3081C21.0482 12.5743 20.8678 12.1858 20.591 11.909C20.3142 11.6322 19.9257 11.4518 19.1919 11.3531C18.4365 11.2516 17.4354 11.25 16 11.25H8C6.56459 11.25 5.56347 11.2516 4.80812 11.3531Z" fill="#4483FD"/>
</svg>
