<svg width="24" height="25" viewBox="0 0 24 25" fill="none" xmlns="http://www.w3.org/2000/svg">
<path fill-rule="evenodd" clip-rule="evenodd" d="M8.25 9.5C8.25 7.42893 9.92893 5.75 12 5.75C14.0711 5.75 15.75 7.42893 15.75 9.5C15.75 11.5711 14.0711 13.25 12 13.25C9.92893 13.25 8.25 11.5711 8.25 9.5ZM12 7.25C10.7574 7.25 9.75 8.25736 9.75 9.5C9.75 10.7426 10.7574 11.75 12 11.75C13.2426 11.75 14.25 10.7426 14.25 9.5C14.25 8.25736 13.2426 7.25 12 7.25Z" fill="#4483FD"/>
<path fill-rule="evenodd" clip-rule="evenodd" d="M1.25 12.5C1.25 6.56294 6.06294 1.75 12 1.75C17.9371 1.75 22.75 6.56294 22.75 12.5C22.75 18.4371 17.9371 23.25 12 23.25C6.06294 23.25 1.25 18.4371 1.25 12.5ZM12 3.25C6.89137 3.25 2.75 7.39137 2.75 12.5C2.75 15.0456 3.77827 17.351 5.4421 19.0235C5.6225 18.0504 5.97694 17.1329 6.68837 16.3951C7.75252 15.2915 9.45416 14.75 12 14.75C14.5457 14.75 16.2474 15.2915 17.3115 16.3951C18.023 17.1329 18.3774 18.0505 18.5578 19.0236C20.2217 17.3511 21.25 15.0456 21.25 12.5C21.25 7.39137 17.1086 3.25 12 3.25ZM17.1937 20.1554C17.0918 18.9435 16.8286 18.0553 16.2318 17.4363C15.5823 16.7628 14.3789 16.25 12 16.25C9.62099 16.25 8.41761 16.7628 7.76815 17.4363C7.17127 18.0553 6.90811 18.9434 6.80622 20.1553C8.28684 21.1618 10.0747 21.75 12 21.75C13.9252 21.75 15.7131 21.1618 17.1937 20.1554Z" fill="#4483FD"/>
</svg>
