<svg width="837" height="309" viewBox="0 0 837 309" fill="none" xmlns="http://www.w3.org/2000/svg">
<rect x="127.382" y="13.0295" width="35.5107" height="121" fill="#4483FD" fill-opacity="0.1"/>
<rect x="181.893" y="13.0295" width="35.5107" height="121" fill="#4483FD" fill-opacity="0.1"/>
<rect x="236.404" y="13.0295" width="35.5107" height="121" fill="#4483FD" fill-opacity="0.1"/>
<rect x="290.914" y="13.0295" width="35.5107" height="121" fill="#4483FD" fill-opacity="0.1"/>
<rect x="345.425" y="13.0295" width="35.5107" height="121" fill="#4483FD" fill-opacity="0.1"/>
<rect x="399.936" y="13.0295" width="35.5107" height="121" fill="#4483FD" fill-opacity="0.1"/>
<rect x="454.446" y="13.0295" width="35.5107" height="121" fill="#4483FD" fill-opacity="0.1"/>
<rect x="508.957" y="13.0295" width="35.5107" height="121" fill="#4483FD" fill-opacity="0.1"/>
<rect x="563.468" y="13.0295" width="35.5107" height="121" fill="#4483FD" fill-opacity="0.1"/>
<rect x="617.979" y="13.0295" width="35.5107" height="121" fill="#4483FD" fill-opacity="0.1"/>
<rect x="672.489" y="13.0295" width="35.5107" height="121" fill="#4483FD" fill-opacity="0.1"/>
<g filter="url(#filter0_dddddd_582_15290)">
<path d="M128.811 65.3616C155.636 65.3616 165.904 36.7549 198.012 36.7549C230.121 36.7549 224.409 56.9753 247.575 56.9753C270.742 56.9753 267.942 79.3525 295.58 79.3525C323.217 79.3525 324.849 65.3616 346.39 65.3616C367.931 65.3616 375.79 28.6667 397.058 28.6667C415.788 28.6667 426.288 51.431 445.018 51.431C465.493 51.431 473.98 80.431 494.455 80.431C514.93 80.431 522.296 56.0745 542.771 56.0745C563.405 56.0745 572.012 67.2203 592.646 67.2203C612.962 67.2203 620.022 80.431 640.339 80.431C661.131 80.431 687.188 44.5735 707.981 44.5735" stroke="#4483FD" stroke-width="3" stroke-linecap="round"/>
</g>
<line x1="99" y1="133.147" x2="708" y2="133.147" stroke="#DFE0E1"/>
<path d="M102.432 16.7495V25.0295H101.376V18.4655C101.376 18.3455 101.38 18.2255 101.388 18.1055C101.396 17.9855 101.412 17.8655 101.436 17.7455L99.408 18.3815L99.264 17.6015L101.376 16.7495H102.432ZM107.393 16.5935C108.105 16.5935 108.669 16.7415 109.085 17.0375C109.501 17.3335 109.797 17.7975 109.973 18.4295C110.157 19.0615 110.249 19.8815 110.249 20.8895C110.249 21.8975 110.157 22.7175 109.973 23.3495C109.797 23.9815 109.501 24.4455 109.085 24.7415C108.669 25.0375 108.105 25.1855 107.393 25.1855C106.689 25.1855 106.129 25.0375 105.713 24.7415C105.297 24.4455 104.997 23.9815 104.813 23.3495C104.637 22.7175 104.549 21.8975 104.549 20.8895C104.549 19.8815 104.637 19.0615 104.813 18.4295C104.997 17.7975 105.297 17.3335 105.713 17.0375C106.129 16.7415 106.689 16.5935 107.393 16.5935ZM107.393 17.5175C107.049 17.5175 106.761 17.5815 106.529 17.7095C106.297 17.8295 106.109 18.0215 105.965 18.2855C105.829 18.5495 105.729 18.8975 105.665 19.3295C105.609 19.7535 105.581 20.2735 105.581 20.8895C105.581 21.4975 105.609 22.0175 105.665 22.4495C105.729 22.8815 105.829 23.2295 105.965 23.4935C106.109 23.7575 106.297 23.9535 106.529 24.0815C106.761 24.2015 107.049 24.2615 107.393 24.2615C107.737 24.2615 108.025 24.2015 108.257 24.0815C108.497 23.9535 108.685 23.7575 108.821 23.4935C108.965 23.2295 109.065 22.8815 109.121 22.4495C109.185 22.0175 109.217 21.4975 109.217 20.8895C109.217 20.2735 109.185 19.7535 109.121 19.3295C109.065 18.8975 108.965 18.5495 108.821 18.2855C108.685 18.0215 108.497 17.8295 108.257 17.7095C108.025 17.5815 107.737 17.5175 107.393 17.5175ZM114.624 16.5935C115.336 16.5935 115.9 16.7415 116.316 17.0375C116.732 17.3335 117.028 17.7975 117.204 18.4295C117.388 19.0615 117.48 19.8815 117.48 20.8895C117.48 21.8975 117.388 22.7175 117.204 23.3495C117.028 23.9815 116.732 24.4455 116.316 24.7415C115.9 25.0375 115.336 25.1855 114.624 25.1855C113.92 25.1855 113.36 25.0375 112.944 24.7415C112.528 24.4455 112.228 23.9815 112.044 23.3495C111.868 22.7175 111.78 21.8975 111.78 20.8895C111.78 19.8815 111.868 19.0615 112.044 18.4295C112.228 17.7975 112.528 17.3335 112.944 17.0375C113.36 16.7415 113.92 16.5935 114.624 16.5935ZM114.624 17.5175C114.28 17.5175 113.992 17.5815 113.76 17.7095C113.528 17.8295 113.34 18.0215 113.196 18.2855C113.06 18.5495 112.96 18.8975 112.896 19.3295C112.84 19.7535 112.812 20.2735 112.812 20.8895C112.812 21.4975 112.84 22.0175 112.896 22.4495C112.96 22.8815 113.06 23.2295 113.196 23.4935C113.34 23.7575 113.528 23.9535 113.76 24.0815C113.992 24.2015 114.28 24.2615 114.624 24.2615C114.968 24.2615 115.256 24.2015 115.488 24.0815C115.728 23.9535 115.916 23.7575 116.052 23.4935C116.196 23.2295 116.296 22.8815 116.352 22.4495C116.416 22.0175 116.448 21.4975 116.448 20.8895C116.448 20.2735 116.416 19.7535 116.352 19.3295C116.296 18.8975 116.196 18.5495 116.052 18.2855C115.916 18.0215 115.728 17.8295 115.488 17.7095C115.256 17.5815 114.968 17.5175 114.624 17.5175Z" fill="#A8A9AD"/>
<path d="M104.148 48.7495C104.316 48.7495 104.448 48.7815 104.544 48.8455C104.64 48.9015 104.7 48.9855 104.724 49.0975C104.756 49.2015 104.748 49.3295 104.7 49.4815L102.12 57.0295H101.064L103.392 50.2615C103.432 50.1495 103.472 50.0455 103.512 49.9495C103.552 49.8455 103.596 49.7455 103.644 49.6495H99.516L99.468 48.7495H104.148ZM110.661 48.7495L110.613 49.6495H107.133L107.013 51.9055L107.901 51.9775C108.445 52.0175 108.905 52.0895 109.281 52.1935C109.665 52.2975 109.977 52.4495 110.217 52.6495C110.457 52.8495 110.629 53.1055 110.733 53.4175C110.845 53.7215 110.901 54.0975 110.901 54.5455C110.901 54.8815 110.865 55.2055 110.793 55.5175C110.729 55.8295 110.601 56.1095 110.409 56.3575C110.225 56.6055 109.957 56.8055 109.605 56.9575C109.253 57.1015 108.793 57.1735 108.225 57.1735C107.897 57.1735 107.517 57.1495 107.085 57.1015C106.653 57.0535 106.213 56.9775 105.765 56.8735L105.885 56.0215C106.261 56.0855 106.637 56.1375 107.013 56.1775C107.389 56.2175 107.713 56.2375 107.985 56.2375C108.513 56.2375 108.909 56.1735 109.173 56.0455C109.437 55.9095 109.617 55.7175 109.713 55.4695C109.809 55.2135 109.861 54.9055 109.869 54.5455C109.877 54.1615 109.829 53.8615 109.725 53.6455C109.629 53.4215 109.469 53.2575 109.245 53.1535C109.029 53.0415 108.737 52.9655 108.369 52.9255C108.009 52.8775 107.565 52.8375 107.037 52.8055L106.485 52.7695C106.365 52.7535 106.265 52.7055 106.185 52.6255C106.113 52.5375 106.081 52.4295 106.089 52.3015L106.281 48.7495H110.661Z" fill="#A8A9AD"/>
<path d="M104.52 80.7495L104.472 81.6495H100.992L100.872 83.9055L101.76 83.9775C102.304 84.0175 102.764 84.0895 103.14 84.1935C103.524 84.2975 103.836 84.4495 104.076 84.6495C104.316 84.8495 104.488 85.1055 104.592 85.4175C104.704 85.7215 104.76 86.0975 104.76 86.5455C104.76 86.8815 104.724 87.2055 104.652 87.5175C104.588 87.8295 104.46 88.1095 104.268 88.3575C104.084 88.6055 103.816 88.8055 103.464 88.9575C103.112 89.1015 102.652 89.1735 102.084 89.1735C101.756 89.1735 101.376 89.1495 100.944 89.1015C100.512 89.0535 100.072 88.9775 99.624 88.8735L99.744 88.0215C100.12 88.0855 100.496 88.1375 100.872 88.1775C101.248 88.2175 101.572 88.2375 101.844 88.2375C102.372 88.2375 102.768 88.1735 103.032 88.0455C103.296 87.9095 103.476 87.7175 103.572 87.4695C103.668 87.2135 103.72 86.9055 103.728 86.5455C103.736 86.1615 103.688 85.8615 103.584 85.6455C103.488 85.4215 103.328 85.2575 103.104 85.1535C102.888 85.0415 102.596 84.9655 102.228 84.9255C101.868 84.8775 101.424 84.8375 100.896 84.8055L100.344 84.7695C100.224 84.7535 100.124 84.7055 100.044 84.6255C99.972 84.5375 99.94 84.4295 99.948 84.3015L100.14 80.7495H104.52ZM109.046 80.5935C109.758 80.5935 110.322 80.7415 110.738 81.0375C111.154 81.3335 111.45 81.7975 111.626 82.4295C111.81 83.0615 111.902 83.8815 111.902 84.8895C111.902 85.8975 111.81 86.7175 111.626 87.3495C111.45 87.9815 111.154 88.4455 110.738 88.7415C110.322 89.0375 109.758 89.1855 109.046 89.1855C108.342 89.1855 107.782 89.0375 107.366 88.7415C106.95 88.4455 106.65 87.9815 106.466 87.3495C106.29 86.7175 106.202 85.8975 106.202 84.8895C106.202 83.8815 106.29 83.0615 106.466 82.4295C106.65 81.7975 106.95 81.3335 107.366 81.0375C107.782 80.7415 108.342 80.5935 109.046 80.5935ZM109.046 81.5175C108.702 81.5175 108.414 81.5815 108.182 81.7095C107.95 81.8295 107.762 82.0215 107.618 82.2855C107.482 82.5495 107.382 82.8975 107.318 83.3295C107.262 83.7535 107.234 84.2735 107.234 84.8895C107.234 85.4975 107.262 86.0175 107.318 86.4495C107.382 86.8815 107.482 87.2295 107.618 87.4935C107.762 87.7575 107.95 87.9535 108.182 88.0815C108.414 88.2015 108.702 88.2615 109.046 88.2615C109.39 88.2615 109.678 88.2015 109.91 88.0815C110.15 87.9535 110.338 87.7575 110.474 87.4935C110.618 87.2295 110.718 86.8815 110.774 86.4495C110.838 86.0175 110.87 85.4975 110.87 84.8895C110.87 84.2735 110.838 83.7535 110.774 83.3295C110.718 82.8975 110.618 82.5495 110.474 82.2855C110.338 82.0215 110.15 81.8295 109.91 81.7095C109.678 81.5815 109.39 81.5175 109.046 81.5175Z" fill="#A8A9AD"/>
<path d="M102.252 112.606C102.78 112.606 103.232 112.65 103.608 112.738C103.992 112.826 104.284 112.998 104.484 113.254C104.692 113.51 104.796 113.89 104.796 114.394C104.796 114.738 104.748 115.062 104.652 115.366C104.564 115.67 104.412 115.986 104.196 116.314C103.98 116.634 103.688 116.998 103.32 117.406L100.944 120.058C101.152 120.042 101.372 120.03 101.604 120.022C101.844 120.014 102.072 120.01 102.288 120.01H105.096V121.03H99.66V120.37C99.66 120.282 99.672 120.202 99.696 120.13C99.72 120.05 99.76 119.978 99.816 119.914L102.216 117.202C102.744 116.634 103.132 116.13 103.38 115.69C103.628 115.25 103.744 114.834 103.728 114.442C103.72 114.17 103.652 113.974 103.524 113.854C103.404 113.726 103.228 113.642 102.996 113.602C102.772 113.562 102.5 113.542 102.18 113.542C101.924 113.542 101.68 113.546 101.448 113.554C101.216 113.562 100.968 113.582 100.704 113.614C100.448 113.638 100.148 113.678 99.804 113.734L99.732 112.918C100.108 112.83 100.436 112.766 100.716 112.726C101.004 112.678 101.268 112.646 101.508 112.63C101.756 112.614 102.004 112.606 102.252 112.606ZM111.258 112.75L111.21 113.65H107.73L107.61 115.906L108.498 115.978C109.042 116.018 109.502 116.09 109.878 116.194C110.262 116.298 110.574 116.45 110.814 116.65C111.054 116.85 111.226 117.106 111.33 117.418C111.442 117.722 111.498 118.098 111.498 118.546C111.498 118.882 111.462 119.206 111.39 119.518C111.326 119.83 111.198 120.11 111.006 120.358C110.822 120.606 110.554 120.806 110.202 120.958C109.85 121.102 109.39 121.174 108.822 121.174C108.494 121.174 108.114 121.15 107.682 121.102C107.25 121.054 106.81 120.978 106.362 120.874L106.482 120.022C106.858 120.086 107.234 120.138 107.61 120.178C107.986 120.218 108.31 120.238 108.582 120.238C109.11 120.238 109.506 120.174 109.77 120.046C110.034 119.91 110.214 119.718 110.31 119.47C110.406 119.214 110.458 118.906 110.466 118.546C110.474 118.162 110.426 117.862 110.322 117.646C110.226 117.422 110.066 117.258 109.842 117.154C109.626 117.042 109.334 116.966 108.966 116.926C108.606 116.878 108.162 116.838 107.634 116.806L107.082 116.77C106.962 116.754 106.862 116.706 106.782 116.626C106.71 116.538 106.678 116.43 106.686 116.302L106.878 112.75H111.258Z" fill="#A8A9AD"/>
<path d="M152.007 140.602V148.882H150.951V142.318C150.951 142.198 150.955 142.078 150.963 141.958C150.971 141.838 150.987 141.718 151.011 141.598L148.983 142.234L148.839 141.454L150.951 140.602H152.007Z" fill="#A8A9AD"/>
<path d="M203.067 140.458C203.595 140.458 204.047 140.502 204.423 140.59C204.807 140.678 205.099 140.85 205.299 141.106C205.507 141.362 205.611 141.742 205.611 142.246C205.611 142.59 205.563 142.914 205.467 143.218C205.379 143.522 205.227 143.838 205.011 144.166C204.795 144.486 204.503 144.85 204.135 145.258L201.759 147.91C201.967 147.894 202.187 147.882 202.419 147.874C202.659 147.866 202.887 147.862 203.103 147.862H205.911V148.882H200.475V148.222C200.475 148.134 200.487 148.054 200.511 147.982C200.535 147.902 200.575 147.83 200.631 147.766L203.031 145.054C203.559 144.486 203.947 143.982 204.195 143.542C204.443 143.102 204.559 142.686 204.543 142.294C204.535 142.022 204.467 141.826 204.339 141.706C204.219 141.578 204.043 141.494 203.811 141.454C203.587 141.414 203.315 141.394 202.995 141.394C202.739 141.394 202.495 141.398 202.263 141.406C202.031 141.414 201.783 141.434 201.519 141.466C201.263 141.49 200.963 141.53 200.619 141.586L200.547 140.77C200.923 140.682 201.251 140.618 201.531 140.578C201.819 140.53 202.083 140.498 202.323 140.482C202.571 140.466 202.819 140.458 203.067 140.458Z" fill="#A8A9AD"/>
<path d="M256.164 140.446C256.772 140.446 257.26 140.506 257.628 140.626C258.004 140.738 258.28 140.934 258.456 141.214C258.632 141.494 258.72 141.878 258.72 142.366C258.72 142.718 258.684 143.042 258.612 143.338C258.54 143.626 258.416 143.87 258.24 144.07C258.072 144.262 257.828 144.39 257.508 144.454V144.502C258.052 144.59 258.424 144.818 258.624 145.186C258.832 145.546 258.94 146.01 258.948 146.578C258.956 147.138 258.876 147.602 258.708 147.97C258.54 148.33 258.264 148.598 257.88 148.774C257.496 148.95 256.976 149.038 256.32 149.038C255.88 149.038 255.436 149.014 254.988 148.966C254.548 148.926 254.116 148.878 253.692 148.822L253.764 147.97C254.036 147.994 254.296 148.018 254.544 148.042C254.8 148.058 255.052 148.07 255.3 148.078C255.548 148.086 255.8 148.09 256.056 148.09C256.504 148.09 256.86 148.042 257.124 147.946C257.396 147.842 257.592 147.67 257.712 147.43C257.84 147.19 257.904 146.87 257.904 146.47C257.904 146.166 257.86 145.902 257.772 145.678C257.692 145.446 257.532 145.266 257.292 145.138C257.06 145.01 256.716 144.946 256.26 144.946H254.724V144.118H256.26C256.588 144.118 256.848 144.074 257.04 143.986C257.24 143.898 257.388 143.786 257.484 143.65C257.58 143.506 257.64 143.346 257.664 143.17C257.696 142.986 257.712 142.798 257.712 142.606C257.704 142.254 257.648 141.994 257.544 141.826C257.44 141.65 257.264 141.534 257.016 141.478C256.776 141.414 256.444 141.382 256.02 141.382C255.628 141.382 255.248 141.394 254.88 141.418C254.52 141.434 254.2 141.454 253.92 141.478L253.836 140.662C254.244 140.59 254.636 140.538 255.012 140.506C255.396 140.466 255.78 140.446 256.164 140.446Z" fill="#A8A9AD"/>
<path d="M310.389 140.602L308.073 145.498C308.001 145.658 307.997 145.782 308.061 145.87C308.133 145.95 308.237 145.99 308.373 145.99H313.281V146.746L312.177 146.854H307.785C307.561 146.854 307.373 146.79 307.221 146.662C307.069 146.534 306.969 146.37 306.921 146.17C306.881 145.97 306.905 145.77 306.993 145.57L309.345 140.602H310.389ZM312.213 142.186V148.882H311.217V143.554L311.397 142.186H312.213Z" fill="#A8A9AD"/>
<path d="M366.142 140.602L366.094 141.502H362.614L362.494 143.758L363.382 143.83C363.926 143.87 364.386 143.942 364.762 144.046C365.146 144.15 365.458 144.302 365.698 144.502C365.938 144.702 366.11 144.958 366.214 145.27C366.326 145.574 366.382 145.95 366.382 146.398C366.382 146.734 366.346 147.058 366.274 147.37C366.21 147.682 366.082 147.962 365.89 148.21C365.706 148.458 365.438 148.658 365.086 148.81C364.734 148.954 364.274 149.026 363.706 149.026C363.378 149.026 362.998 149.002 362.566 148.954C362.134 148.906 361.694 148.83 361.246 148.726L361.366 147.874C361.742 147.938 362.118 147.99 362.494 148.03C362.87 148.07 363.194 148.09 363.466 148.09C363.994 148.09 364.39 148.026 364.654 147.898C364.918 147.762 365.098 147.57 365.194 147.322C365.29 147.066 365.342 146.758 365.35 146.398C365.358 146.014 365.31 145.714 365.206 145.498C365.11 145.274 364.95 145.11 364.726 145.006C364.51 144.894 364.218 144.818 363.85 144.778C363.49 144.73 363.046 144.69 362.518 144.658L361.966 144.622C361.846 144.606 361.746 144.558 361.666 144.478C361.594 144.39 361.562 144.282 361.57 144.154L361.762 140.602H366.142Z" fill="#A8A9AD"/>
<path d="M417.631 140.458C417.799 140.458 418.035 140.466 418.339 140.482C418.643 140.498 418.963 140.55 419.299 140.638L419.203 141.406C419.027 141.39 418.863 141.378 418.711 141.37C418.567 141.362 418.411 141.358 418.243 141.358C418.075 141.358 417.871 141.358 417.631 141.358C417.223 141.358 416.879 141.402 416.599 141.49C416.319 141.578 416.095 141.746 415.927 141.994C415.759 142.242 415.639 142.606 415.567 143.086C415.495 143.566 415.459 144.198 415.459 144.982C415.459 145.582 415.475 146.086 415.507 146.494C415.539 146.902 415.611 147.226 415.723 147.466C415.843 147.698 416.019 147.866 416.251 147.97C416.491 148.074 416.815 148.126 417.223 148.126C417.695 148.126 418.043 148.054 418.267 147.91C418.499 147.758 418.647 147.538 418.711 147.25C418.783 146.962 418.819 146.614 418.819 146.206C418.819 145.75 418.775 145.386 418.687 145.114C418.607 144.842 418.455 144.646 418.231 144.526C418.007 144.398 417.691 144.334 417.283 144.334C417.019 144.334 416.775 144.366 416.551 144.43C416.327 144.494 416.099 144.61 415.867 144.778C415.635 144.938 415.367 145.166 415.063 145.462L415.015 144.934C415.279 144.558 415.531 144.266 415.771 144.058C416.011 143.842 416.271 143.694 416.551 143.614C416.839 143.526 417.175 143.482 417.559 143.482C418.143 143.482 418.599 143.57 418.927 143.746C419.255 143.922 419.487 144.21 419.623 144.61C419.759 145.002 419.827 145.534 419.827 146.206C419.827 146.63 419.795 147.018 419.731 147.37C419.667 147.714 419.543 148.01 419.359 148.258C419.175 148.506 418.911 148.698 418.567 148.834C418.223 148.962 417.771 149.026 417.211 149.026C416.627 149.026 416.151 148.962 415.783 148.834C415.415 148.698 415.131 148.474 414.931 148.162C414.739 147.85 414.603 147.434 414.523 146.914C414.451 146.386 414.415 145.73 414.415 144.946C414.415 143.97 414.479 143.186 414.607 142.594C414.743 142.002 414.943 141.554 415.207 141.25C415.471 140.938 415.803 140.73 416.203 140.626C416.611 140.514 417.087 140.458 417.631 140.458Z" fill="#A8A9AD"/>
<path d="M472.352 140.602C472.52 140.602 472.652 140.634 472.748 140.698C472.844 140.754 472.904 140.838 472.928 140.95C472.96 141.054 472.952 141.182 472.904 141.334L470.324 148.882H469.268L471.596 142.114C471.636 142.002 471.676 141.898 471.716 141.802C471.756 141.698 471.8 141.598 471.848 141.502H467.72L467.672 140.602H472.352Z" fill="#A8A9AD"/>
<path d="M523.996 140.482C524.524 140.482 524.956 140.526 525.292 140.614C525.636 140.702 525.904 140.834 526.096 141.01C526.296 141.186 526.432 141.414 526.504 141.694C526.584 141.966 526.624 142.29 526.624 142.666C526.624 143.026 526.584 143.342 526.504 143.614C526.424 143.886 526.296 144.106 526.12 144.274C525.952 144.434 525.728 144.53 525.448 144.562V144.61C525.8 144.642 526.072 144.754 526.264 144.946C526.464 145.13 526.604 145.382 526.684 145.702C526.764 146.014 526.804 146.386 526.804 146.818C526.804 147.322 526.728 147.738 526.576 148.066C526.424 148.386 526.144 148.622 525.736 148.774C525.336 148.926 524.756 149.002 523.996 149.002C523.252 149.002 522.676 148.926 522.268 148.774C521.86 148.622 521.576 148.386 521.416 148.066C521.256 147.738 521.176 147.322 521.176 146.818C521.176 146.386 521.216 146.014 521.296 145.702C521.384 145.382 521.528 145.13 521.728 144.946C521.928 144.754 522.2 144.642 522.544 144.61V144.562C522.264 144.53 522.036 144.434 521.86 144.274C521.684 144.106 521.556 143.886 521.476 143.614C521.396 143.342 521.356 143.026 521.356 142.666C521.356 142.29 521.396 141.966 521.476 141.694C521.556 141.414 521.692 141.186 521.884 141.01C522.084 140.834 522.352 140.702 522.688 140.614C523.032 140.526 523.468 140.482 523.996 140.482ZM524.02 145.006C523.644 145.006 523.336 145.03 523.096 145.078C522.856 145.126 522.668 145.21 522.532 145.33C522.396 145.442 522.3 145.602 522.244 145.81C522.196 146.018 522.172 146.282 522.172 146.602C522.172 146.97 522.22 147.266 522.316 147.49C522.42 147.706 522.604 147.862 522.868 147.958C523.14 148.046 523.52 148.09 524.008 148.09C524.496 148.09 524.868 148.046 525.124 147.958C525.38 147.862 525.556 147.706 525.652 147.49C525.748 147.266 525.796 146.97 525.796 146.602C525.796 146.274 525.768 146.006 525.712 145.798C525.664 145.59 525.576 145.43 525.448 145.318C525.32 145.198 525.14 145.118 524.908 145.078C524.676 145.03 524.38 145.006 524.02 145.006ZM524.008 141.334C523.552 141.334 523.204 141.378 522.964 141.466C522.724 141.554 522.556 141.702 522.46 141.91C522.372 142.118 522.328 142.402 522.328 142.762C522.328 143.138 522.372 143.43 522.46 143.638C522.556 143.838 522.724 143.978 522.964 144.058C523.212 144.13 523.564 144.166 524.02 144.166C524.484 144.166 524.832 144.126 525.064 144.046C525.304 143.966 525.464 143.826 525.544 143.626C525.624 143.418 525.664 143.13 525.664 142.762C525.664 142.402 525.62 142.118 525.532 141.91C525.452 141.702 525.292 141.554 525.052 141.466C524.812 141.378 524.464 141.334 524.008 141.334Z" fill="#A8A9AD"/>
<path d="M577.589 140.458C578.189 140.458 578.669 140.53 579.029 140.674C579.397 140.81 579.673 141.038 579.857 141.358C580.041 141.678 580.161 142.106 580.217 142.642C580.281 143.178 580.313 143.846 580.313 144.646C580.313 145.574 580.253 146.326 580.133 146.902C580.013 147.478 579.825 147.922 579.569 148.234C579.321 148.538 578.993 148.746 578.585 148.858C578.177 148.97 577.685 149.026 577.109 149.026C576.925 149.026 576.673 149.018 576.353 149.002C576.041 148.986 575.697 148.934 575.321 148.846L575.417 148.066C575.609 148.082 575.781 148.094 575.933 148.102C576.085 148.11 576.249 148.114 576.425 148.114C576.609 148.114 576.837 148.114 577.109 148.114C577.525 148.114 577.873 148.066 578.153 147.97C578.433 147.874 578.657 147.702 578.825 147.454C578.993 147.198 579.113 146.842 579.185 146.386C579.257 145.93 579.293 145.342 579.293 144.622C579.293 143.99 579.277 143.466 579.245 143.05C579.221 142.626 579.157 142.29 579.053 142.042C578.949 141.794 578.781 141.618 578.549 141.514C578.317 141.41 577.993 141.358 577.577 141.358C577.121 141.358 576.773 141.434 576.533 141.586C576.301 141.738 576.145 141.958 576.065 142.246C575.985 142.534 575.945 142.886 575.945 143.302C575.945 143.702 575.985 144.042 576.065 144.322C576.153 144.594 576.309 144.802 576.533 144.946C576.757 145.09 577.065 145.162 577.457 145.162C577.721 145.162 577.961 145.13 578.177 145.066C578.401 144.994 578.629 144.878 578.861 144.718C579.093 144.55 579.361 144.322 579.665 144.034L579.713 144.55C579.457 144.926 579.205 145.222 578.957 145.438C578.717 145.646 578.457 145.794 578.177 145.882C577.897 145.962 577.565 146.002 577.181 146.002C576.613 146.002 576.165 145.886 575.837 145.654C575.509 145.422 575.277 145.102 575.141 144.694C575.005 144.286 574.937 143.822 574.937 143.302C574.937 142.67 575.017 142.146 575.177 141.73C575.345 141.306 575.621 140.99 576.005 140.782C576.397 140.566 576.925 140.458 577.589 140.458Z" fill="#A8A9AD"/>
<path d="M631.355 140.602V148.882H630.299V142.318C630.299 142.198 630.303 142.078 630.311 141.958C630.319 141.838 630.335 141.718 630.359 141.598L628.331 142.234L628.187 141.454L630.299 140.602H631.355ZM636.316 140.446C637.028 140.446 637.592 140.594 638.008 140.89C638.424 141.186 638.72 141.65 638.896 142.282C639.08 142.914 639.172 143.734 639.172 144.742C639.172 145.75 639.08 146.57 638.896 147.202C638.72 147.834 638.424 148.298 638.008 148.594C637.592 148.89 637.028 149.038 636.316 149.038C635.612 149.038 635.052 148.89 634.636 148.594C634.22 148.298 633.92 147.834 633.736 147.202C633.56 146.57 633.472 145.75 633.472 144.742C633.472 143.734 633.56 142.914 633.736 142.282C633.92 141.65 634.22 141.186 634.636 140.89C635.052 140.594 635.612 140.446 636.316 140.446ZM636.316 141.37C635.972 141.37 635.684 141.434 635.452 141.562C635.22 141.682 635.032 141.874 634.888 142.138C634.752 142.402 634.652 142.75 634.588 143.182C634.532 143.606 634.504 144.126 634.504 144.742C634.504 145.35 634.532 145.87 634.588 146.302C634.652 146.734 634.752 147.082 634.888 147.346C635.032 147.61 635.22 147.806 635.452 147.934C635.684 148.054 635.972 148.114 636.316 148.114C636.66 148.114 636.948 148.054 637.18 147.934C637.42 147.806 637.608 147.61 637.744 147.346C637.888 147.082 637.988 146.734 638.044 146.302C638.108 145.87 638.14 145.35 638.14 144.742C638.14 144.126 638.108 143.606 638.044 143.182C637.988 142.75 637.888 142.402 637.744 142.138C637.608 141.874 637.42 141.682 637.18 141.562C636.948 141.434 636.66 141.37 636.316 141.37Z" fill="#A8A9AD"/>
<path d="M690.298 140.602V148.882H689.242V142.318C689.242 142.198 689.246 142.078 689.254 141.958C689.262 141.838 689.278 141.718 689.302 141.598L687.274 142.234L687.13 141.454L689.242 140.602H690.298ZM695.079 140.602V148.882H694.023V142.318C694.023 142.198 694.027 142.078 694.035 141.958C694.043 141.838 694.059 141.718 694.083 141.598L692.055 142.234L691.911 141.454L694.023 140.602H695.079Z" fill="#A8A9AD"/>
<defs>
<!-- <filter id="filter0_dddddd_582_15290" x="0.311255" y="0.166748" width="836.17" height="308.764" filterUnits="userSpaceOnUse" color-interpolation-filters="sRGB">
<feFlood flood-opacity="0" result="BackgroundImageFix"/>
<feColorMatrix in="SourceAlpha" type="matrix" values="0 0 0 0 0 0 0 0 0 0 0 0 0 0 0 0 0 0 127 0" result="hardAlpha"/>
<feOffset dy="1.85185"/>
<feGaussianBlur stdDeviation="2.49884"/>
<feColorMatrix type="matrix" values="0 0 0 0 0.266667 0 0 0 0 0.513726 0 0 0 0 0.992157 0 0 0 0.219074 0"/>
<feBlend mode="normal" in2="BackgroundImageFix" result="effect1_dropShadow_582_15290"/>
<feColorMatrix in="SourceAlpha" type="matrix" values="0 0 0 0 0 0 0 0 0 0 0 0 0 0 0 0 0 0 127 0" result="hardAlpha"/>
<feOffset dy="8.14815"/>
<feGaussianBlur stdDeviation="5.17407"/>
<feColorMatrix type="matrix" values="0 0 0 0 0.266667 0 0 0 0 0.513726 0 0 0 0 0.992157 0 0 0 0.357259 0"/>
<feBlend mode="normal" in2="effect1_dropShadow_582_15290" result="effect2_dropShadow_582_15290"/>
<feColorMatrix in="SourceAlpha" type="matrix" values="0 0 0 0 0 0 0 0 0 0 0 0 0 0 0 0 0 0 127 0" result="hardAlpha"/>
<feOffset dy="20"/>
<feGaussianBlur stdDeviation="10.3188"/>
<feColorMatrix type="matrix" values="0 0 0 0 0.266667 0 0 0 0 0.513726 0 0 0 0 0.992157 0 0 0 0.455 0"/>
<feBlend mode="normal" in2="effect2_dropShadow_582_15290" result="effect3_dropShadow_582_15290"/>
<feColorMatrix in="SourceAlpha" type="matrix" values="0 0 0 0 0 0 0 0 0 0 0 0 0 0 0 0 0 0 127 0" result="hardAlpha"/>
<feOffset dy="38.5185"/>
<feGaussianBlur stdDeviation="20.2259"/>
<feColorMatrix type="matrix" values="0 0 0 0 0.266667 0 0 0 0 0.513726 0 0 0 0 0.992157 0 0 0 0.552741 0"/>
<feBlend mode="normal" in2="effect3_dropShadow_582_15290" result="effect4_dropShadow_582_15290"/>
<feColorMatrix in="SourceAlpha" type="matrix" values="0 0 0 0 0 0 0 0 0 0 0 0 0 0 0 0 0 0 127 0" result="hardAlpha"/>
<feOffset dy="64.8148"/>
<feGaussianBlur stdDeviation="37.1887"/>
<feColorMatrix type="matrix" values="0 0 0 0 0.266667 0 0 0 0 0.513726 0 0 0 0 0.992157 0 0 0 0.690926 0"/>
<feBlend mode="normal" in2="effect4_dropShadow_582_15290" result="effect5_dropShadow_582_15290"/>
<feColorMatrix in="SourceAlpha" type="matrix" values="0 0 0 0 0 0 0 0 0 0 0 0 0 0 0 0 0 0 127 0" result="hardAlpha"/>
<feOffset dy="100"/>
<feGaussianBlur stdDeviation="63.5"/>
<feColorMatrix type="matrix" values="0 0 0 0 0.266667 0 0 0 0 0.513726 0 0 0 0 0.992157 0 0 0 0.91 0"/>
<feBlend mode="normal" in2="effect5_dropShadow_582_15290" result="effect6_dropShadow_582_15290"/>
<feBlend mode="normal" in="SourceGraphic" in2="effect6_dropShadow_582_15290" result="shape"/>
</filter> -->
</defs>
</svg>
