<svg width="32" height="32" viewBox="0 0 32 32" fill="none" xmlns="http://www.w3.org/2000/svg">
<g clip-path="url(#clip0_622_12553)">
<path d="M31.9713 15.9944C31.9713 24.7873 24.8438 31.9148 16.051 31.9148C7.25843 31.9148 0.130554 24.7873 0.130554 15.9944C0.130554 7.20176 7.25843 0.0740356 16.051 0.0740356C24.8438 0.0740356 31.9713 7.20176 31.9713 15.9944Z" fill="#1BA27A"/>
<path d="M23.5229 8.10205H8.44788V11.7415H14.1657V17.0907H17.8051V11.7415H23.5229V8.10205Z" fill="white"/>
<path d="M16.0199 17.6605C11.2899 17.6605 7.45519 16.9119 7.45519 15.9884C7.45519 15.065 11.2898 14.3163 16.0199 14.3163C20.7498 14.3163 24.5844 15.065 24.5844 15.9884C24.5844 16.9119 20.7498 17.6605 16.0199 17.6605ZM25.6366 16.2672C25.6366 15.0763 21.3311 14.1111 16.0199 14.1111C10.7088 14.1111 6.40302 15.0763 6.40302 16.2672C6.40302 17.3158 9.74168 18.1895 14.1658 18.3831V26.0622H17.8049V18.3862C22.2631 18.1986 25.6366 17.3212 25.6366 16.2672Z" fill="white"/>
</g>
<defs>
<clipPath id="clip0_622_12553">
<rect width="32" height="32" fill="white"/>
</clipPath>
</defs>
</svg>
