<svg width="20" height="20" viewBox="0 0 20 20" fill="none" xmlns="http://www.w3.org/2000/svg">
<path fill-rule="evenodd" clip-rule="evenodd" d="M8.80075 1.875H11.1995C11.2941 1.87499 11.3678 1.87498 11.4374 1.87919C12.3211 1.93271 13.0949 2.49046 13.4252 3.31188C13.4512 3.37663 13.4745 3.44648 13.5044 3.53623L13.5311 3.6165C13.5469 3.66375 13.5514 3.67712 13.5552 3.68765C13.7028 4.09582 14.0665 4.37982 14.446 4.41676C14.4739 4.41827 14.5016 4.41984 14.5291 4.42146C15.9262 4.50388 17.001 4.73648 17.7989 5.53437C18.4226 6.15801 18.6993 6.9488 18.8307 7.92582C18.9583 8.87516 18.9583 10.0882 18.9583 11.6197V11.7137C18.9583 13.2451 18.9583 14.4582 18.8307 15.4075C18.6993 16.3845 18.4226 17.1753 17.7989 17.799C17.1753 18.4226 16.3845 18.6994 15.4075 18.8307C14.4581 18.9584 13.2451 18.9584 11.7136 18.9583H8.28628C6.75482 18.9584 5.54179 18.9584 4.59244 18.8307C3.61542 18.6994 2.82463 18.4226 2.201 17.799C1.57736 17.1753 1.3006 16.3845 1.16924 15.4075C1.0416 14.4582 1.04161 13.2452 1.04163 11.7137V11.6197C1.04161 10.0882 1.0416 8.87516 1.16924 7.92582C1.3006 6.9488 1.57736 6.15801 2.201 5.53437C2.99889 4.73647 4.07374 4.50388 5.47077 4.42146C5.4983 4.41984 5.52602 4.41827 5.55393 4.41676C5.93356 4.3798 6.29751 4.09568 6.4451 3.68767C6.44893 3.67707 6.45335 3.66398 6.46917 3.61651L6.49594 3.5362C6.52583 3.44648 6.54911 3.37662 6.57513 3.31188C6.90535 2.49046 7.67918 1.93271 8.56288 1.87919C8.63253 1.87498 8.70616 1.87499 8.80075 1.875ZM5.53491 5.66985C5.57192 5.66872 5.60871 5.66664 5.64525 5.66365C6.37225 5.62522 7.24761 5.625 8.33329 5.625H11.6666C12.7523 5.625 13.6277 5.62522 14.3547 5.66365C14.3912 5.66664 14.428 5.66872 14.465 5.66985C15.8016 5.74955 16.4634 5.96663 16.915 6.41826C17.0754 6.57859 17.2065 6.76587 17.3124 7.00124C15.7899 7.98971 14.7895 8.62737 13.9471 9.04821C13.8917 8.75968 13.638 8.54167 13.3333 8.54167C12.9881 8.54167 12.7083 8.82149 12.7083 9.16667V9.5483C10.9421 10.0813 9.05782 10.0812 7.29163 9.54826V9.16667C7.29163 8.82149 7.0118 8.54167 6.66663 8.54167C6.36197 8.54167 6.10823 8.75965 6.05285 9.04815C5.21047 8.6273 4.21005 7.98963 2.6875 7.00117C2.79343 6.76584 2.92456 6.57858 3.08488 6.41826C3.53651 5.96663 4.19836 5.74955 5.53491 5.66985ZM2.38357 8.29418C2.29276 9.12452 2.29163 10.1994 2.29163 11.6667C2.29163 13.2557 2.29295 14.3846 2.40809 15.241C2.52081 16.0794 2.7322 16.5624 3.08488 16.9151C3.43755 17.2678 3.92059 17.4792 4.759 17.5919C5.61539 17.707 6.74428 17.7083 8.33329 17.7083H11.6666C13.2556 17.7083 14.3845 17.707 15.2409 17.5919C16.0793 17.4792 16.5624 17.2678 16.915 16.9151C17.2677 16.5624 17.4791 16.0794 17.5918 15.241C17.707 14.3846 17.7083 13.2557 17.7083 11.6667C17.7083 10.1995 17.7072 9.12459 17.6164 8.29427C16.0438 9.31324 14.9654 9.98756 13.9583 10.4205V10.8333C13.9583 11.1785 13.6785 11.4583 13.3333 11.4583C12.9927 11.4583 12.7157 11.1859 12.7084 10.847C10.9332 11.315 9.06671 11.315 7.29148 10.847C7.28422 11.1859 7.00725 11.4583 6.66663 11.4583C6.32145 11.4583 6.04163 11.1785 6.04163 10.8333V10.4204C5.03454 9.98749 3.95609 9.31316 2.38357 8.29418ZM12.4933 4.37574C12.2343 4.375 11.9645 4.375 11.6838 4.375H8.31616C8.03554 4.375 7.76592 4.375 7.50698 4.37574C7.55006 4.29052 7.58805 4.20272 7.62056 4.11287C7.63049 4.0854 7.64024 4.05616 7.65276 4.01859L7.65503 4.01179L7.67641 3.94765C7.71419 3.83431 7.72488 3.80312 7.73492 3.77813C7.88502 3.40475 8.23676 3.15124 8.63844 3.12691C8.66533 3.12528 8.69828 3.125 8.81776 3.125H11.1825C11.302 3.125 11.335 3.12528 11.3619 3.12691C11.7635 3.15124 12.1153 3.40475 12.2654 3.77813C12.2754 3.80312 12.2861 3.83429 12.3239 3.94765L12.3475 4.01844M12.3797 4.11289C12.4122 4.20273 12.4502 4.29053 12.4933 4.37574Z" fill="#4483FD"/>
</svg>
