<svg width="20" height="20" viewBox="0 0 20 20" fill="none" xmlns="http://www.w3.org/2000/svg">
<path d="M12.4545 1.04169C11.3148 1.04167 10.3962 1.04166 9.67372 1.13879C8.92363 1.23964 8.29207 1.45538 7.79047 1.95698C7.35303 2.39442 7.132 2.93198 7.01597 3.56365C6.90322 4.17745 6.88165 4.9286 6.87664 5.82988C6.87472 6.17505 7.15298 6.45642 7.49815 6.45835C7.84332 6.46027 8.1247 6.18201 8.12662 5.83683C8.13169 4.92559 8.15536 4.27968 8.2454 3.78948C8.33216 3.31714 8.47148 3.04374 8.67435 2.84086C8.90499 2.61023 9.2288 2.45986 9.84028 2.37764C10.4697 2.29302 11.304 2.29169 12.5002 2.29169H13.3335C14.5297 2.29169 15.364 2.29302 15.9934 2.37764C16.6049 2.45986 16.9287 2.61023 17.1593 2.84086C17.39 3.0715 17.5403 3.39531 17.6226 4.00679C17.7072 4.63625 17.7085 5.47051 17.7085 6.66669V13.3334C17.7085 14.5295 17.7072 15.3638 17.6226 15.9933C17.5403 16.6047 17.39 16.9285 17.1593 17.1592C16.9287 17.3898 16.6049 17.5402 15.9934 17.6224C15.364 17.707 14.5297 17.7084 13.3335 17.7084H12.5002C11.304 17.7084 10.4697 17.707 9.84028 17.6224C9.2288 17.5402 8.90499 17.3898 8.67435 17.1592C8.47148 16.9563 8.33216 16.6829 8.2454 16.2106C8.15536 15.7204 8.13169 15.0745 8.12662 14.1632C8.1247 13.818 7.84332 13.5398 7.49815 13.5417C7.15298 13.5436 6.87472 13.825 6.87664 14.1702C6.88165 15.0714 6.90322 15.8226 7.01597 16.4364C7.132 17.0681 7.35303 17.6056 7.79047 18.0431C8.29207 18.5447 8.92363 18.7604 9.67372 18.8613C10.3962 18.9584 11.3148 18.9584 12.4545 18.9584H13.3792C14.5189 18.9584 15.4375 18.9584 16.16 18.8613C16.9101 18.7604 17.5416 18.5447 18.0432 18.0431C18.5448 17.5415 18.7606 16.9099 18.8614 16.1598C18.9585 15.4373 18.9585 14.5187 18.9585 13.3791V6.62096C18.9585 5.4813 18.9585 4.5627 18.8614 3.84023C18.7606 3.09014 18.5448 2.45858 18.0432 1.95698C17.5416 1.45538 16.9101 1.23964 16.16 1.13879C15.4375 1.04166 14.5189 1.04167 13.3793 1.04169H12.4545Z" fill="#4483FD"/>
<path d="M1.66748 9.37421C1.3223 9.37421 1.04248 9.65403 1.04248 9.99921C1.04248 10.3444 1.3223 10.6242 1.66748 10.6242L11.6446 10.6242L10.0107 12.0247C9.74866 12.2493 9.71831 12.6439 9.94295 12.906C10.1676 13.168 10.5621 13.1984 10.8242 12.9737L13.7409 10.4737C13.8794 10.355 13.9591 10.1817 13.9591 9.99921C13.9591 9.81675 13.8794 9.64341 13.7409 9.52467L10.8242 7.02467C10.5621 6.80003 10.1676 6.83038 9.94295 7.09246C9.71831 7.35454 9.74866 7.7491 10.0107 7.97374L11.6446 9.37421L1.66748 9.37421Z" fill="#4483FD"/>
</svg>
