<svg width="20" height="20" viewBox="0 0 20 20" fill="none" xmlns="http://www.w3.org/2000/svg">
<path d="M12.5 9.16675C12.9603 9.16675 13.3334 8.79365 13.3334 8.33342C13.3334 7.87318 12.9603 7.50008 12.5 7.50008C12.0398 7.50008 11.6667 7.87318 11.6667 8.33342C11.6667 8.79365 12.0398 9.16675 12.5 9.16675Z" fill="#4483FD"/>
<path d="M8.33337 8.33342C8.33337 8.79365 7.96028 9.16675 7.50004 9.16675C7.0398 9.16675 6.66671 8.79365 6.66671 8.33342C6.66671 7.87318 7.0398 7.50008 7.50004 7.50008C7.96028 7.50008 8.33337 7.87318 8.33337 8.33342Z" fill="#4483FD"/>
<path fill-rule="evenodd" clip-rule="evenodd" d="M6.87504 4.39647V4.16675C6.87504 2.44086 8.27415 1.04175 10 1.04175C11.7259 1.04175 13.125 2.44086 13.125 4.16675V4.39647C13.6737 4.41345 14.1623 4.44392 14.5958 4.49857C15.5969 4.62476 16.4072 4.89025 17.0331 5.50158C17.242 5.70555 17.4276 5.932 17.5867 6.17679C18.0634 6.91047 18.1648 7.7571 18.0922 8.76345C18.0212 9.74835 17.7739 10.9849 17.46 12.5541L17.4441 12.6337C17.2263 13.7228 17.0529 14.5896 16.8384 15.2714C16.6175 15.9737 16.3354 16.5415 15.8635 17.0015C15.7012 17.1597 15.5256 17.3036 15.3386 17.4318C14.795 17.8043 14.1829 17.9696 13.4509 18.0485C12.7403 18.1251 11.8564 18.1251 10.7457 18.1251H9.25444C8.14378 18.1251 7.25989 18.1251 6.54924 18.0485C5.81728 17.9696 5.20516 17.8043 4.66158 17.4318C4.47462 17.3036 4.29902 17.1597 4.1367 17.0015C3.66476 16.5415 3.38266 15.9737 3.16175 15.2714C2.94727 14.5896 2.77393 13.7229 2.55612 12.6338L2.54022 12.5543C2.22635 10.985 1.97902 9.74839 1.90799 8.76345C1.83541 7.7571 1.93683 6.91047 2.41353 6.17679C2.57258 5.932 2.75822 5.70555 2.96707 5.50158C3.59302 4.89025 4.40331 4.62476 5.40436 4.49857C5.83784 4.44392 6.32639 4.41346 6.87504 4.39647ZM8.12504 4.16675C8.12504 3.13121 8.96451 2.29175 10 2.29175C11.0356 2.29175 11.875 3.13121 11.875 4.16675V4.37691C11.5215 4.37508 11.1483 4.37508 10.7546 4.37508H9.24556C8.8518 4.37508 8.47858 4.37508 8.12504 4.37691V4.16675ZM3.84045 6.39584C4.18582 6.05854 4.68043 5.84972 5.56069 5.73875C6.45311 5.62626 7.63529 5.62508 9.29053 5.62508H10.7097C12.3649 5.62508 13.5471 5.62626 14.4395 5.73875C15.3198 5.84972 15.8144 6.05854 16.1597 6.39584C16.3026 6.5354 16.4297 6.69034 16.5385 6.85783C16.8015 7.26264 16.9093 7.7886 16.8454 8.67353C16.7807 9.57068 16.55 10.7301 16.2254 12.3532C15.9989 13.4857 15.838 14.2862 15.646 14.8963C15.4582 15.4934 15.2587 15.8455 14.991 16.1063C14.88 16.2145 14.7598 16.313 14.6319 16.4007C14.3237 16.612 13.9393 16.7386 13.317 16.8057C12.6811 16.8742 11.8646 16.8751 10.7097 16.8751H9.29054C8.13564 16.8751 7.31908 16.8742 6.68319 16.8057C6.06093 16.7386 5.67651 16.612 5.36827 16.4007C5.24035 16.313 5.1202 16.2145 5.00915 16.1063C4.74153 15.8455 4.54194 15.4934 4.35414 14.8963C4.16223 14.2862 4.00126 13.4857 3.77477 12.3532C3.45015 10.7301 3.21945 9.57068 3.15475 8.67353C3.09093 7.7886 3.19869 7.26264 3.46171 6.85783C3.57054 6.69034 3.69756 6.5354 3.84045 6.39584Z" fill="#4483FD"/>
</svg>
