<svg width="20" height="20" viewBox="0 0 20 20" fill="none" xmlns="http://www.w3.org/2000/svg">
<path fill-rule="evenodd" clip-rule="evenodd" d="M7.49996 1.04163C5.31383 1.04163 3.54163 2.81383 3.54163 4.99996C3.54163 7.18609 5.31383 8.95829 7.49996 8.95829C9.68609 8.95829 11.4583 7.18609 11.4583 4.99996C11.4583 2.81383 9.68609 1.04163 7.49996 1.04163ZM4.79163 4.99996C4.79163 3.50419 6.00419 2.29163 7.49996 2.29163C8.99573 2.29163 10.2083 3.50419 10.2083 4.99996C10.2083 6.49573 8.99573 7.70829 7.49996 7.70829C6.00419 7.70829 4.79163 6.49573 4.79163 4.99996Z" fill="#4483FD"/>
<path d="M12.5 1.87496C12.1548 1.87496 11.875 2.15478 11.875 2.49996C11.875 2.84514 12.1548 3.12496 12.5 3.12496C13.5355 3.12496 14.375 3.96443 14.375 4.99996C14.375 6.03549 13.5355 6.87496 12.5 6.87496C12.1548 6.87496 11.875 7.15478 11.875 7.49996C11.875 7.84514 12.1548 8.12496 12.5 8.12496C14.2258 8.12496 15.625 6.72585 15.625 4.99996C15.625 3.27407 14.2258 1.87496 12.5 1.87496Z" fill="#4483FD"/>
<path fill-rule="evenodd" clip-rule="evenodd" d="M3.06508 11.267C4.23122 10.6006 5.80051 10.2083 7.49996 10.2083C9.1994 10.2083 10.7687 10.6006 11.9348 11.267C13.0833 11.9232 13.9583 12.9251 13.9583 14.1666C13.9583 15.4082 13.0833 16.41 11.9348 17.0663C10.7687 17.7327 9.1994 18.125 7.49996 18.125C5.80051 18.125 4.23122 17.7327 3.06508 17.0663C1.91662 16.41 1.04163 15.4082 1.04163 14.1666C1.04163 12.9251 1.91662 11.9232 3.06508 11.267ZM3.68526 12.3523C2.72246 12.9024 2.29163 13.5672 2.29163 14.1666C2.29163 14.766 2.72246 15.4308 3.68526 15.981C4.63037 16.5211 5.97774 16.875 7.49996 16.875C9.02217 16.875 10.3696 16.5211 11.3147 15.981C12.2775 15.4308 12.7083 14.766 12.7083 14.1666C12.7083 13.5672 12.2775 12.9024 11.3147 12.3523C10.3696 11.8122 9.02217 11.4583 7.49996 11.4583C5.97774 11.4583 4.63037 11.8122 3.68526 12.3523Z" fill="#4483FD"/>
<path d="M15.1338 11.0561C14.7967 10.9822 14.4634 11.1956 14.3895 11.5327C14.3155 11.8699 14.5289 12.2032 14.8661 12.2771C15.5264 12.4219 16.0541 12.6706 16.4024 12.9556C16.7511 13.241 16.875 13.5197 16.875 13.75C16.875 13.9589 16.7745 14.2042 16.4974 14.4615C16.2183 14.7208 15.7895 14.9603 15.2364 15.1269C14.9059 15.2264 14.7186 15.575 14.8182 15.9055C14.9177 16.236 15.2663 16.4233 15.5968 16.3238C16.2823 16.1174 16.8952 15.7981 17.3481 15.3774C17.8031 14.9547 18.125 14.3988 18.125 13.75C18.125 13.0293 17.7298 12.4267 17.194 11.9882C16.6577 11.5494 15.9354 11.2319 15.1338 11.0561Z" fill="#4483FD"/>
</svg>
